<svg width="678" height="368" version="1.1" xmlns="http://www.w3.org/2000/svg" desc="Created with imagetracer.js version 1.2.6" ><path fill="rgb(252,83,111)" stroke="rgb(252,83,111)" stroke-width="1" opacity="0.996078431372549" d="M 488.5 33 L 507.5 45 L 522 59.5 L 532.5 74 L 554.5 65 L 566.5 62 L 576.5 62 L 584 67.5 Q 583.3 69.8 585.5 69 L 587.5 69 L 590 69 Q 588.9 71.7 591.5 71 L 597 77.5 L 597 85 L 601 86.5 Q 600.5 91.5 604.5 92 L 608 94.5 L 609 97.5 L 605 104.5 L 605 108 L 609 105.5 L 610.5 103 L 612 104.5 Q 611.4 109.9 613 112 Q 615.7 113.9 622.5 113 L 626 115.5 Q 628.2 120.2 627 128.5 L 632.5 136 L 635 137.5 L 634 145.5 Q 638.8 147.8 640 153.5 Q 637.8 154.8 639 159.5 L 644 171.5 L 646.5 174 L 655.5 173 L 656.5 175 L 646.5 177 L 645 178.5 L 652 180.5 L 650 183.5 L 654 185 L 654 190 L 651.5 190 L 650.5 191 L 640.5 191 L 631.5 189 L 619.5 184 L 587 163 Q 588.1 160.3 585.5 161 L 577 155 L 576 151.5 L 578 148 L 568.5 147 L 565.5 148 L 562 146 Q 563.1 143.3 560.5 144 L 559.5 143 L 547.5 143 L 542.5 139 L 532.5 138 L 522 132.5 L 515.5 125 L 505.5 125 L 504.5 124 L 493.5 123 L 482.5 119 L 465.5 109 L 461.5 109 L 450.5 113 L 388.5 114 Q 380.2 112.3 376 106.5 L 369.5 96 Q 365.5 95.5 365 98.5 L 363.5 101 L 358 95.5 L 358 92 Q 363.4 91.1 365.5 95 L 366 92.5 L 360 79.5 L 365 78 L 367.5 72 L 375.5 79 L 381.5 81 Q 384.5 76.3 393 78 Q 391.8 73.4 394.5 72 L 412.5 63 Q 419.3 62.8 423 59.5 L 426.5 54 Q 435.2 53.7 439.5 49 L 445.5 49 L 447 47.5 L 449.5 43 L 467.5 38 L 476.5 37 L 488.5 33 Z " /><path fill="rgb(252,83,111)" stroke="rgb(252,83,111)" stroke-width="1" opacity="0.996078431372549" d="M 372.5 120 Q 380.2 126.3 396.5 124 L 404.5 121 L 416.5 120 L 441 125.5 L 438 132.5 L 439.5 132 L 445.5 128 L 449.5 128 L 469.5 137 L 489 150 L 491 153.5 L 491 156.5 L 488 167.5 L 488 172.5 L 490.5 171 L 498 165.5 L 499.5 161 L 514 171.5 L 508 192 L 511 190.5 L 521 165 Q 523.7 163.1 530.5 164 L 532.5 164 L 534.5 165 L 536.5 165 L 562.5 165 L 574.5 168 L 595.5 179 L 601 184.5 L 603.5 189 L 613.5 194 L 618 194 L 620.5 200 L 625.5 201 L 629 204.5 Q 627.3 209.3 631.5 208 L 633 207.5 Q 633.3 212.3 636.5 214 L 642 217.5 L 638.5 222 Q 633 223.5 631.5 221 Q 628.3 222.8 632 224.5 L 634 229 Q 629.5 231.9 622 232 L 622 223.5 L 620.5 222 L 617.5 222 L 611.5 227 L 608 226 L 606.5 229 L 600.5 230 L 597.5 229 L 595 230 L 591.5 236 L 571.5 246 Q 570.1 243.4 565.5 244 L 551.5 251 L 546.5 252 L 530.5 252 L 502.5 243 L 477.5 233 L 470.5 232 L 459.5 228 L 441.5 221 L 435 216.5 L 436 209.5 L 445.5 200 L 481 173.5 L 480 169 L 472.5 172 L 450.5 189 L 447 190 L 445.5 193 L 438.5 199 L 438 192.5 L 440 186.5 L 443 162.5 L 439.5 160 L 437 161 L 436 165.5 L 422 186 L 416.5 188 L 415 186.5 L 414 176.5 L 418 158 L 415.5 157 L 413 158 L 409 170.5 L 403 178 L 395.5 183 L 384 164.5 Q 384.2 159.3 381 157.5 L 381 149 L 377.5 150 L 374.5 144 L 369 145 Q 364.1 137.8 364 126 Q 368.9 126.1 371 122.5 L 372.5 120 Z " /><path fill="rgb(252,83,111)" stroke="rgb(252,83,111)" stroke-width="1" opacity="0.996078431372549" d="M 434.5 178 L 435 182.5 L 430 208 Q 427.3 206.9 428 209.5 L 424.5 211 L 405 194.5 L 400 187.5 L 408 180.5 L 409 187.5 L 413.5 193 L 419.5 194 L 426 190 L 434.5 178 Z " /><path fill="rgb(252,83,111)" stroke="rgb(252,83,111)" stroke-width="1" opacity="0.996078431372549" d="M 379.5 322 L 380 324.5 L 379 324.5 L 379.5 322 Z " /><path fill="rgb(66,65,68)" stroke="rgb(66,65,68)" stroke-width="1" opacity="0.17647058823529413" d="M 302.5 59 L 303 61 L 297 65.5 L 296.5 67 L 296 65.5 L 302.5 59 Z " /><path fill="rgb(66,65,68)" stroke="rgb(66,65,68)" stroke-width="1" opacity="0.17647058823529413" d="M 308.5 65 L 309 70.5 L 308 70.5 L 308.5 65 Z " /><path fill="rgb(66,65,68)" stroke="rgb(66,65,68)" stroke-width="1" opacity="0.17647058823529413" d="M 295.5 68 L 296 69.5 L 291.5 77 L 291 75.5 L 295.5 68 Z " /><path fill="rgb(66,65,68)" stroke="rgb(66,65,68)" stroke-width="1" opacity="0.17647058823529413" d="M 301.5 71 L 302 73.5 L 300.5 77 L 299 73.5 L 301.5 71 Z " /><path fill="rgb(66,65,68)" stroke="rgb(66,65,68)" stroke-width="1" opacity="0.17647058823529413" d="M 223.5 76 L 222.5 78 L 223.5 76 Z " /><path fill="rgb(66,65,68)" stroke="rgb(66,65,68)" stroke-width="1" opacity="0.17647058823529413" d="M 227.5 76 Q 230 77 229 81.5 L 227.5 85 L 227 82.5 L 228 77.5 L 227.5 76 Z " /><path fill="rgb(66,65,68)" stroke="rgb(66,65,68)" stroke-width="1" opacity="0.17647058823529413" d="M 306.5 77 L 307 79.5 L 306 79.5 L 306.5 77 Z " /><path fill="rgb(66,65,68)" stroke="rgb(66,65,68)" stroke-width="1" opacity="0.17647058823529413" d="M 290.5 78 L 291 79.5 L 285.5 92 L 285 89.5 L 290.5 78 Z " /><path fill="rgb(66,65,68)" stroke="rgb(66,65,68)" stroke-width="1" opacity="0.17647058823529413" d="M 221.5 80 L 221 81.5 L 220.5 86 L 220 81.5 L 221.5 80 Z " /><path fill="rgb(66,65,68)" stroke="rgb(66,65,68)" stroke-width="1" opacity="0.17647058823529413" d="M 295.5 89 L 296 90.5 L 293.5 95 L 293 93.5 L 295.5 89 Z " /><path fill="rgb(66,65,68)" stroke="rgb(66,65,68)" stroke-width="1" opacity="0.17647058823529413" d="M 218.5 91 L 219 93.5 L 218 93.5 L 218.5 91 Z " /><path fill="rgb(66,65,68)" stroke="rgb(66,65,68)" stroke-width="1" opacity="0.17647058823529413" d="M 284.5 93 L 285 96.5 L 283 104 L 281 103.5 L 283 100.5 L 284.5 93 Z " /><path fill="rgb(66,65,68)" stroke="rgb(66,65,68)" stroke-width="1" opacity="0.17647058823529413" d="M 217.5 96 L 218 97.5 L 216.5 102 L 216 98.5 L 217.5 96 Z " /><path fill="rgb(66,65,68)" stroke="rgb(66,65,68)" stroke-width="1" opacity="0.17647058823529413" d="M 290.5 98 L 292 98.5 L 289.5 103 L 289 99.5 L 290.5 98 Z " /><path fill="rgb(66,65,68)" stroke="rgb(66,65,68)" stroke-width="1" opacity="0.17647058823529413" d="M 222.5 100 L 223 102.5 L 222 102.5 L 222.5 100 Z " /><path fill="rgb(66,65,68)" stroke="rgb(66,65,68)" stroke-width="1" opacity="0.17647058823529413" d="M 215.5 103 L 216 105.5 L 214.5 109 L 214 106.5 L 215.5 103 Z " /><path fill="rgb(66,65,68)" stroke="rgb(66,65,68)" stroke-width="1" opacity="0.17647058823529413" d="M 281.5 106 L 281 107.5 L 280.5 111 L 280 107.5 L 281.5 106 Z " /><path fill="rgb(66,65,68)" stroke="rgb(66,65,68)" stroke-width="1" opacity="0.17647058823529413" d="M 220.5 108 L 222 111.5 L 220 110.5 L 220.5 108 Z " /><path fill="rgb(66,65,68)" stroke="rgb(66,65,68)" stroke-width="1" opacity="0.17647058823529413" d="M 237.5 111 L 248 111.5 L 237.5 112 L 237.5 111 Z " /><path fill="rgb(66,65,68)" stroke="rgb(66,65,68)" stroke-width="1" opacity="0.17647058823529413" d="M 249.5 111 L 260 111.5 L 249.5 112 L 249.5 111 Z " /><path fill="rgb(66,65,68)" stroke="rgb(66,65,68)" stroke-width="1" opacity="0.17647058823529413" d="M 268.5 111 L 279 111.5 L 268.5 112 L 268.5 111 Z " /><path fill="rgb(66,65,68)" stroke="rgb(66,65,68)" stroke-width="1" opacity="0.17647058823529413" d="M 293.5 111 L 315 111.5 L 293.5 112 L 293.5 111 Z " /><path fill="rgb(66,65,68)" stroke="rgb(66,65,68)" stroke-width="1" opacity="0.17647058823529413" d="M 185.5 112 L 195 112.5 L 185.5 113 L 185.5 112 Z " /><path fill="rgb(66,65,68)" stroke="rgb(66,65,68)" stroke-width="1" opacity="0.17647058823529413" d="M 156.5 113 L 158 113.5 L 155.5 115 L 156.5 113 Z " /><path fill="rgb(66,65,68)" stroke="rgb(66,65,68)" stroke-width="1" opacity="0.17647058823529413" d="M 324.5 113 Q 326.8 113.8 326 117.5 L 325 117.5 L 324.5 113 Z " /><path fill="rgb(66,65,68)" stroke="rgb(66,65,68)" stroke-width="1" opacity="0.17647058823529413" d="M 155.5 116 L 156 118.5 L 155 118.5 L 155.5 116 Z " /><path fill="rgb(66,65,68)" stroke="rgb(66,65,68)" stroke-width="1" opacity="0.17647058823529413" d="M 234.5 117 L 264 117.5 L 234.5 118 L 234.5 117 Z " /><path fill="rgb(66,65,68)" stroke="rgb(66,65,68)" stroke-width="1" opacity="0.17647058823529413" d="M 277 117 Q 280 116 279 119 Q 276 120 277 117 Z " /><path fill="rgb(66,65,68)" stroke="rgb(66,65,68)" stroke-width="1" opacity="0.17647058823529413" d="M 289.5 117 L 288.5 119 L 289.5 117 Z " /><path fill="rgb(66,65,68)" stroke="rgb(66,65,68)" stroke-width="1" opacity="0.17647058823529413" d="M 303.5 117 L 315 117.5 L 303.5 118 L 303.5 117 Z " /><path fill="rgb(66,65,68)" stroke="rgb(66,65,68)" stroke-width="1" opacity="0.17647058823529413" d="M 219.5 118 L 219 119.5 L 218.5 122 L 218 119.5 L 219.5 118 Z " /><path fill="rgb(66,65,68)" stroke="rgb(66,65,68)" stroke-width="1" opacity="0.17647058823529413" d="M 157.5 119 L 176 119.5 L 157.5 120 L 157.5 119 Z " /><path fill="rgb(66,65,68)" stroke="rgb(66,65,68)" stroke-width="1" opacity="0.17647058823529413" d="M 321.5 119 L 324 119.5 L 321.5 120 L 321.5 119 Z " /><path fill="rgb(66,65,68)" stroke="rgb(66,65,68)" stroke-width="1" opacity="0.17647058823529413" d="M 277.5 121 L 278 122.5 L 276.5 126 L 276 123.5 L 277.5 121 Z " /><path fill="rgb(66,65,68)" stroke="rgb(66,65,68)" stroke-width="1" opacity="0.17647058823529413" d="M 217.5 123 L 218 125.5 L 216.5 129 L 216 126.5 L 217.5 123 Z " /><path fill="rgb(66,65,68)" stroke="rgb(66,65,68)" stroke-width="1" opacity="0.17647058823529413" d="M 275.5 127 L 276 129.5 L 275 129.5 L 275.5 127 Z " /><path fill="rgb(66,65,68)" stroke="rgb(66,65,68)" stroke-width="1" opacity="0.17647058823529413" d="M 209.5 128 L 210 131.5 L 207.5 139 L 207 136.5 L 209.5 128 Z " /><path fill="rgb(66,65,68)" stroke="rgb(66,65,68)" stroke-width="1" opacity="0.17647058823529413" d="M 274.5 131 L 275 134.5 L 274 134.5 L 274.5 131 Z " /><path fill="rgb(66,65,68)" stroke="rgb(66,65,68)" stroke-width="1" opacity="0.17647058823529413" d="M 214.5 134 L 215 136.5 L 214 136.5 L 214.5 134 Z " /><path fill="rgb(66,65,68)" stroke="rgb(66,65,68)" stroke-width="1" opacity="0.17647058823529413" d="M 280.5 135 L 281 137.5 L 280 137.5 L 280.5 135 Z " /><path fill="rgb(66,65,68)" stroke="rgb(66,65,68)" stroke-width="1" opacity="0.17647058823529413" d="M 213.5 138 L 214 140.5 L 213 140.5 L 213.5 138 Z " /><path fill="rgb(66,65,68)" stroke="rgb(66,65,68)" stroke-width="1" opacity="0.17647058823529413" d="M 273.5 138 L 274 139.5 L 272.5 145 L 272 140.5 L 273.5 138 Z " /><path fill="rgb(66,65,68)" stroke="rgb(66,65,68)" stroke-width="1" opacity="0.17647058823529413" d="M 206.5 141 L 207 143.5 L 206 143.5 L 206.5 141 Z " /><path fill="rgb(66,65,68)" stroke="rgb(66,65,68)" stroke-width="1" opacity="0.17647058823529413" d="M 205.5 145 L 206 147.5 L 205 147.5 L 205.5 145 Z " /><path fill="rgb(66,65,68)" stroke="rgb(66,65,68)" stroke-width="1" opacity="0.17647058823529413" d="M 204.5 149 L 205 151.5 L 203.5 155 L 203 152.5 L 204.5 149 Z " /><path fill="rgb(66,65,68)" stroke="rgb(66,65,68)" stroke-width="1" opacity="0.17647058823529413" d="M 270.5 149 L 271 151.5 L 270 151.5 L 270.5 149 Z " /><path fill="rgb(66,65,68)" stroke="rgb(66,65,68)" stroke-width="1" opacity="0.17647058823529413" d="M 70.5 154 L 73 154.5 L 70.5 155 L 70.5 154 Z " /><path fill="rgb(66,65,68)" stroke="rgb(66,65,68)" stroke-width="1" opacity="0.17647058823529413" d="M 74.5 154 L 75.5 156 L 74.5 154 Z " /><path fill="rgb(66,65,68)" stroke="rgb(66,65,68)" stroke-width="1" opacity="0.17647058823529413" d="M 269.5 154 L 270 156.5 L 268 157.5 L 269.5 154 Z " /><path fill="rgb(66,65,68)" stroke="rgb(66,65,68)" stroke-width="1" opacity="0.17647058823529413" d="M 340.5 154 L 343 157.5 L 342 157.5 L 340.5 154 Z " /><path fill="rgb(66,65,68)" stroke="rgb(66,65,68)" stroke-width="1" opacity="0.17647058823529413" d="M 336.5 155 L 337 156.5 L 334.5 161 L 334 159.5 L 336.5 155 Z " /><path fill="rgb(66,65,68)" stroke="rgb(66,65,68)" stroke-width="1" opacity="0.17647058823529413" d="M 166.5 156 L 167.5 158 L 166.5 156 Z " /><path fill="rgb(66,65,68)" stroke="rgb(66,65,68)" stroke-width="1" opacity="0.17647058823529413" d="M 151.5 157 L 147 162.5 L 142.5 170 L 144 167.5 L 149 158 L 151.5 157 Z " /><path fill="rgb(66,65,68)" stroke="rgb(66,65,68)" stroke-width="1" opacity="0.17647058823529413" d="M 202.5 157 L 203 159.5 L 202 159.5 L 202.5 157 Z " /><path fill="rgb(66,65,68)" stroke="rgb(66,65,68)" stroke-width="1" opacity="0.17647058823529413" d="M 209.5 157 L 210 159.5 L 209 159.5 L 209.5 157 Z " /><path fill="rgb(66,65,68)" stroke="rgb(66,65,68)" stroke-width="1" opacity="0.17647058823529413" d="M 68.5 159 L 69 160.5 L 67.5 163 L 67 161.5 L 68.5 159 Z " /><path fill="rgb(66,65,68)" stroke="rgb(66,65,68)" stroke-width="1" opacity="0.17647058823529413" d="M 274.5 159 L 275 163.5 L 274 163.5 L 274.5 159 Z " /><path fill="rgb(66,65,68)" stroke="rgb(66,65,68)" stroke-width="1" opacity="0.17647058823529413" d="M 157.5 161 L 151.5 168 L 157.5 161 Z " /><path fill="rgb(66,65,68)" stroke="rgb(66,65,68)" stroke-width="1" opacity="0.17647058823529413" d="M 228.5 161 L 232 161.5 L 228.5 162 L 228.5 161 Z " /><path fill="rgb(66,65,68)" stroke="rgb(66,65,68)" stroke-width="1" opacity="0.17647058823529413" d="M 267.5 161 L 268 163.5 L 267 163.5 L 267.5 161 Z " /><path fill="rgb(66,65,68)" stroke="rgb(66,65,68)" stroke-width="1" opacity="0.17647058823529413" d="M 163.5 162 L 166 163 L 167 165.5 L 163.5 162 Z " /><path fill="rgb(66,65,68)" stroke="rgb(66,65,68)" stroke-width="1" opacity="0.17647058823529413" d="M 201.5 162 L 202 164.5 L 201 164.5 L 201.5 162 Z " /><path fill="rgb(66,65,68)" stroke="rgb(66,65,68)" stroke-width="1" opacity="0.17647058823529413" d="M 233.5 162 L 236 165.5 L 235 165.5 L 233.5 162 Z " /><path fill="rgb(66,65,68)" stroke="rgb(66,65,68)" stroke-width="1" opacity="0.17647058823529413" d="M 333.5 162 L 333 163.5 L 332.5 166 L 332 163.5 L 333.5 162 Z " /><path fill="rgb(66,65,68)" stroke="rgb(66,65,68)" stroke-width="1" opacity="0.17647058823529413" d="M 107.5 163 Q 113.6 161.8 113 164.5 L 111.5 164 Q 106.5 165 107.5 163 Z " /><path fill="rgb(66,65,68)" stroke="rgb(66,65,68)" stroke-width="1" opacity="0.17647058823529413" d="M 224.5 163 L 220 168.5 L 214.5 181 L 214 178.5 L 222.5 164 L 224.5 163 Z " /><path fill="rgb(66,65,68)" stroke="rgb(66,65,68)" stroke-width="1" opacity="0.17647058823529413" d="M 373.5 163 L 378 163.5 Q 373.4 162.9 372 165.5 L 367.5 173 L 367 171.5 L 373.5 163 Z " /><path fill="rgb(66,65,68)" stroke="rgb(66,65,68)" stroke-width="1" opacity="0.17647058823529413" d="M 83.5 164 L 81.5 167 L 83.5 164 Z " /><path fill="rgb(66,65,68)" stroke="rgb(66,65,68)" stroke-width="1" opacity="0.17647058823529413" d="M 171.5 164 L 170.5 166 L 171.5 164 Z " /><path fill="rgb(66,65,68)" stroke="rgb(66,65,68)" stroke-width="1" opacity="0.17647058823529413" d="M 273.5 165 L 274 168.5 L 272.5 172 L 272 169.5 L 273.5 165 Z " /><path fill="rgb(66,65,68)" stroke="rgb(66,65,68)" stroke-width="1" opacity="0.17647058823529413" d="M 349.5 165 L 346 169.5 L 341.5 176 L 342 174.5 L 343 171 Q 345.7 172.1 345 169.5 L 349.5 165 Z " /><path fill="rgb(66,65,68)" stroke="rgb(66,65,68)" stroke-width="1" opacity="0.17647058823529413" d="M 379.5 165 L 380.5 167 L 379.5 165 Z " /><path fill="rgb(66,65,68)" stroke="rgb(66,65,68)" stroke-width="1" opacity="0.17647058823529413" d="M 72.5 166 L 73 167.5 L 71.5 170 L 71 168.5 L 72.5 166 Z " /><path fill="rgb(66,65,68)" stroke="rgb(66,65,68)" stroke-width="1" opacity="0.17647058823529413" d="M 207.5 166 L 208 168.5 L 207 168.5 L 207.5 166 Z " /><path fill="rgb(66,65,68)" stroke="rgb(66,65,68)" stroke-width="1" opacity="0.17647058823529413" d="M 266.5 166 L 267 167.5 L 263 170.5 L 253.5 184 L 254 182.5 L 264.5 168 Q 267 168.7 266.5 166 Z " /><path fill="rgb(66,65,68)" stroke="rgb(66,65,68)" stroke-width="1" opacity="0.17647058823529413" d="M 200.5 167 L 201 168.5 L 199.5 172 L 199 169.5 L 200.5 167 Z " /><path fill="rgb(66,65,68)" stroke="rgb(66,65,68)" stroke-width="1" opacity="0.17647058823529413" d="M 331.5 167 L 328.5 171 L 331.5 167 Z " /><path fill="rgb(66,65,68)" stroke="rgb(66,65,68)" stroke-width="1" opacity="0.17647058823529413" d="M 80.5 168 L 80 169.5 L 72.5 180 L 74 177.5 L 80.5 168 Z " /><path fill="rgb(66,65,68)" stroke="rgb(66,65,68)" stroke-width="1" opacity="0.17647058823529413" d="M 89.5 168 L 90 188.5 L 89 188.5 L 89.5 168 Z " /><path fill="rgb(66,65,68)" stroke="rgb(66,65,68)" stroke-width="1" opacity="0.17647058823529413" d="M 103.5 168 L 102.5 170 L 103.5 168 Z " /><path fill="rgb(66,65,68)" stroke="rgb(66,65,68)" stroke-width="1" opacity="0.17647058823529413" d="M 228.5 168 L 226.5 171 L 228.5 168 Z " /><path fill="rgb(66,65,68)" stroke="rgb(66,65,68)" stroke-width="1" opacity="0.17647058823529413" d="M 230.5 168 L 231 172.5 L 230 175.5 L 231 177.5 L 229 176.5 L 230.5 168 Z " /><path fill="rgb(66,65,68)" stroke="rgb(66,65,68)" stroke-width="1" opacity="0.17647058823529413" d="M 64.5 169 L 65 170.5 L 63.5 174 L 63 171.5 L 64.5 169 Z " /><path fill="rgb(66,65,68)" stroke="rgb(66,65,68)" stroke-width="1" opacity="0.17647058823529413" d="M 161.5 169 L 162 170.5 L 156.5 177 L 158 174.5 L 161.5 169 Z " /><path fill="rgb(66,65,68)" stroke="rgb(66,65,68)" stroke-width="1" opacity="0.17647058823529413" d="M 149.5 170 L 148.5 172 L 149.5 170 Z " /><path fill="rgb(66,65,68)" stroke="rgb(66,65,68)" stroke-width="1" opacity="0.17647058823529413" d="M 206.5 170 L 207 172.5 L 206 172.5 L 206.5 170 Z " /><path fill="rgb(66,65,68)" stroke="rgb(66,65,68)" stroke-width="1" opacity="0.17647058823529413" d="M 101.5 171 L 102 172.5 L 92.5 190 L 93 188.5 L 101.5 171 Z " /><path fill="rgb(66,65,68)" stroke="rgb(66,65,68)" stroke-width="1" opacity="0.17647058823529413" d="M 141.5 171 L 132.5 181 L 136 176.5 Q 135.3 174.3 137.5 175 L 141.5 171 Z " /><path fill="rgb(66,65,68)" stroke="rgb(66,65,68)" stroke-width="1" opacity="0.17647058823529413" d="M 236.5 172 L 237 175.5 L 235 176.5 L 236.5 172 Z " /><path fill="rgb(66,65,68)" stroke="rgb(66,65,68)" stroke-width="1" opacity="0.17647058823529413" d="M 327.5 172 L 328 173.5 L 322.5 181 L 323 179.5 L 327.5 172 Z " /><path fill="rgb(66,65,68)" stroke="rgb(66,65,68)" stroke-width="1" opacity="0.17647058823529413" d="M 198.5 173 L 199 174.5 L 196.5 178 L 197 176.5 L 198.5 173 Z " /><path fill="rgb(66,65,68)" stroke="rgb(66,65,68)" stroke-width="1" opacity="0.17647058823529413" d="M 271.5 173 L 272 175.5 L 271 175.5 L 271.5 173 Z " /><path fill="rgb(66,65,68)" stroke="rgb(66,65,68)" stroke-width="1" opacity="0.17647058823529413" d="M 380.5 173 L 381 175.5 L 380 175.5 L 380.5 173 Z " /><path fill="rgb(66,65,68)" stroke="rgb(66,65,68)" stroke-width="1" opacity="0.17647058823529413" d="M 366.5 174 L 366 175.5 L 360.5 187 L 360 185.5 L 366.5 174 Z " /><path fill="rgb(66,65,68)" stroke="rgb(66,65,68)" stroke-width="1" opacity="0.17647058823529413" d="M 62.5 175 L 63 176.5 L 60.5 183 L 60 180.5 L 62.5 175 Z " /><path fill="rgb(66,65,68)" stroke="rgb(66,65,68)" stroke-width="1" opacity="0.17647058823529413" d="M 107.5 175 L 106.5 177 L 107.5 175 Z " /><path fill="rgb(66,65,68)" stroke="rgb(66,65,68)" stroke-width="1" opacity="0.17647058823529413" d="M 373.5 175 L 372.5 177 L 373.5 175 Z " /><path fill="rgb(66,65,68)" stroke="rgb(66,65,68)" stroke-width="1" opacity="0.17647058823529413" d="M 82.5 177 L 83 189.5 L 84 190.5 L 82 189.5 L 82.5 177 Z " /><path fill="rgb(66,65,68)" stroke="rgb(66,65,68)" stroke-width="1" opacity="0.17647058823529413" d="M 114.5 177 L 115 179.5 L 114 179.5 L 114.5 177 Z " /><path fill="rgb(66,65,68)" stroke="rgb(66,65,68)" stroke-width="1" opacity="0.17647058823529413" d="M 270.5 177 L 271 179.5 L 270 179.5 L 270.5 177 Z " /><path fill="rgb(66,65,68)" stroke="rgb(66,65,68)" stroke-width="1" opacity="0.17647058823529413" d="M 340.5 177 L 339.5 179 L 340.5 177 Z " /><path fill="rgb(66,65,68)" stroke="rgb(66,65,68)" stroke-width="1" opacity="0.17647058823529413" d="M 145.5 178 L 146 180.5 L 145 180.5 L 145.5 178 Z " /><path fill="rgb(66,65,68)" stroke="rgb(66,65,68)" stroke-width="1" opacity="0.17647058823529413" d="M 155.5 178 L 154.5 180 L 155.5 178 Z " /><path fill="rgb(66,65,68)" stroke="rgb(66,65,68)" stroke-width="1" opacity="0.17647058823529413" d="M 221.5 178 L 222 179.5 L 220.5 184 L 220 180.5 L 221.5 178 Z " /><path fill="rgb(66,65,68)" stroke="rgb(66,65,68)" stroke-width="1" opacity="0.17647058823529413" d="M 285.5 178 Q 290.8 176.8 292 179.5 L 290.5 179 Q 284.5 180.3 285.5 178 Z " /><path fill="rgb(66,65,68)" stroke="rgb(66,65,68)" stroke-width="1" opacity="0.17647058823529413" d="M 334.5 178 L 335 180.5 L 334 180.5 L 334.5 178 Z " /><path fill="rgb(66,65,68)" stroke="rgb(66,65,68)" stroke-width="1" opacity="0.17647058823529413" d="M 349.5 178 L 350 180.5 L 349 180.5 L 349.5 178 Z " /><path fill="rgb(66,65,68)" stroke="rgb(66,65,68)" stroke-width="1" opacity="0.17647058823529413" d="M 355.5 178 L 356 185.5 L 355 185.5 L 355.5 178 Z " /><path fill="rgb(66,65,68)" stroke="rgb(66,65,68)" stroke-width="1" opacity="0.17647058823529413" d="M 371.5 178 L 372 179.5 L 370.5 182 L 370 180.5 L 371.5 178 Z " /><path fill="rgb(66,65,68)" stroke="rgb(66,65,68)" stroke-width="1" opacity="0.17647058823529413" d="M 80.5 179 L 81 180.5 L 77.5 185 L 78 183.5 L 80.5 179 Z " /><path fill="rgb(66,65,68)" stroke="rgb(66,65,68)" stroke-width="1" opacity="0.17647058823529413" d="M 108.5 179 L 109 182.5 L 108 182.5 L 108.5 179 Z " /><path fill="rgb(66,65,68)" stroke="rgb(66,65,68)" stroke-width="1" opacity="0.17647058823529413" d="M 195.5 179 L 195 180.5 L 194.5 182 L 194 180.5 L 195.5 179 Z " /><path fill="rgb(66,65,68)" stroke="rgb(66,65,68)" stroke-width="1" opacity="0.17647058823529413" d="M 283.5 179 L 282.5 181 L 276 186.5 L 274.5 189 L 275 187.5 L 281.5 180 L 283.5 179 Z " /><path fill="rgb(66,65,68)" stroke="rgb(66,65,68)" stroke-width="1" opacity="0.17647058823529413" d="M 374.5 179 L 375 182.5 L 374 182.5 L 374.5 179 Z " /><path fill="rgb(66,65,68)" stroke="rgb(66,65,68)" stroke-width="1" opacity="0.17647058823529413" d="M 381.5 179 L 382 181.5 L 381 181.5 L 381.5 179 Z " /><path fill="rgb(66,65,68)" stroke="rgb(66,65,68)" stroke-width="1" opacity="0.17647058823529413" d="M 67.5 181 L 68 183.5 L 67 183.5 L 67.5 181 Z " /><path fill="rgb(66,65,68)" stroke="rgb(66,65,68)" stroke-width="1" opacity="0.17647058823529413" d="M 71.5 181 L 71 182.5 Q 71.8 184.8 69.5 184 L 71.5 181 Z " /><path fill="rgb(66,65,68)" stroke="rgb(66,65,68)" stroke-width="1" opacity="0.17647058823529413" d="M 130.5 181 L 128.5 184 L 130.5 181 Z " /><path fill="rgb(66,65,68)" stroke="rgb(66,65,68)" stroke-width="1" opacity="0.17647058823529413" d="M 153.5 181 L 149 186.5 L 145.5 191 L 148 187.5 L 153.5 181 Z " /><path fill="rgb(66,65,68)" stroke="rgb(66,65,68)" stroke-width="1" opacity="0.17647058823529413" d="M 161.5 181 L 159.5 184 L 161.5 181 Z " /><path fill="rgb(66,65,68)" stroke="rgb(66,65,68)" stroke-width="1" opacity="0.17647058823529413" d="M 293.5 181 L 294.5 183 L 293.5 181 Z " /><path fill="rgb(66,65,68)" stroke="rgb(66,65,68)" stroke-width="1" opacity="0.17647058823529413" d="M 103.5 182 L 103 183.5 L 102.5 185 L 102 183.5 L 103.5 182 Z " /><path fill="rgb(66,65,68)" stroke="rgb(66,65,68)" stroke-width="1" opacity="0.17647058823529413" d="M 115.5 182 L 117 184.5 L 115 183.5 L 115.5 182 Z " /><path fill="rgb(66,65,68)" stroke="rgb(66,65,68)" stroke-width="1" opacity="0.17647058823529413" d="M 168.5 182 L 169 186.5 L 168 186.5 L 168.5 182 Z " /><path fill="rgb(66,65,68)" stroke="rgb(66,65,68)" stroke-width="1" opacity="0.17647058823529413" d="M 204.5 182 L 204 183.5 L 203.5 187 L 203 183.5 L 204.5 182 Z " /><path fill="rgb(66,65,68)" stroke="rgb(66,65,68)" stroke-width="1" opacity="0.17647058823529413" d="M 320.5 182 L 321 183.5 L 319 184.5 L 320.5 182 Z " /><path fill="rgb(66,65,68)" stroke="rgb(66,65,68)" stroke-width="1" opacity="0.17647058823529413" d="M 337.5 182 L 337 183.5 L 335.5 186 L 336 184.5 L 337.5 182 Z " /><path fill="rgb(66,65,68)" stroke="rgb(66,65,68)" stroke-width="1" opacity="0.17647058823529413" d="M 193.5 183 L 192.5 185 L 193.5 183 Z " /><path fill="rgb(66,65,68)" stroke="rgb(66,65,68)" stroke-width="1" opacity="0.17647058823529413" d="M 213.5 183 L 213 184.5 L 212.5 190 L 212 184.5 L 213.5 183 Z " /><path fill="rgb(66,65,68)" stroke="rgb(66,65,68)" stroke-width="1" opacity="0.17647058823529413" d="M 261 183 Q 264.3 181.7 263 186.5 L 262 186.5 L 261.5 185 L 260 185.5 L 261 183 Z " /><path fill="rgb(66,65,68)" stroke="rgb(66,65,68)" stroke-width="1" opacity="0.17647058823529413" d="M 344.5 183 L 343.5 185 L 344.5 183 Z " /><path fill="rgb(66,65,68)" stroke="rgb(66,65,68)" stroke-width="1" opacity="0.17647058823529413" d="M 59.5 184 L 60 186.5 L 57.5 194 L 57 192.5 L 59.5 184 Z " /><path fill="rgb(66,65,68)" stroke="rgb(66,65,68)" stroke-width="1" opacity="0.17647058823529413" d="M 109.5 184 L 113.5 191 L 116 192.5 L 114.5 192 L 111 189.5 L 109.5 184 Z " /><path fill="rgb(66,65,68)" stroke="rgb(66,65,68)" stroke-width="1" opacity="0.17647058823529413" d="M 162.5 184 L 163 188.5 L 162 188.5 L 162.5 184 Z " /><path fill="rgb(66,65,68)" stroke="rgb(66,65,68)" stroke-width="1" opacity="0.17647058823529413" d="M 332.5 184 L 333 186.5 L 332 186.5 L 332.5 184 Z " /><path fill="rgb(66,65,68)" stroke="rgb(66,65,68)" stroke-width="1" opacity="0.17647058823529413" d="M 349.5 184 L 350 193.5 L 354 199.5 L 351 197.5 Q 347.2 193 349.5 184 Z " /><path fill="rgb(66,65,68)" stroke="rgb(66,65,68)" stroke-width="1" opacity="0.17647058823529413" d="M 375.5 184 L 382 192.5 L 376 187.5 L 375.5 184 Z " /><path fill="rgb(66,65,68)" stroke="rgb(66,65,68)" stroke-width="1" opacity="0.17647058823529413" d="M 136.5 185 L 137 188.5 L 136 188.5 L 136.5 185 Z " /><path fill="rgb(66,65,68)" stroke="rgb(66,65,68)" stroke-width="1" opacity="0.17647058823529413" d="M 252.5 185 L 252 186.5 L 236.5 205 L 232.5 207 L 232.5 206 L 242 198.5 L 252.5 185 Z " /><path fill="rgb(66,65,68)" stroke="rgb(66,65,68)" stroke-width="1" opacity="0.17647058823529413" d="M 76.5 186 L 76 187.5 L 70.5 196 L 71 194.5 L 76.5 186 Z " /><path fill="rgb(66,65,68)" stroke="rgb(66,65,68)" stroke-width="1" opacity="0.17647058823529413" d="M 122.5 186 L 121.5 188 L 119 187.5 L 122.5 186 Z " /><path fill="rgb(66,65,68)" stroke="rgb(66,65,68)" stroke-width="1" opacity="0.17647058823529413" d="M 143.5 186 L 144 188.5 L 143 188.5 L 143.5 186 Z " /><path fill="rgb(66,65,68)" stroke="rgb(66,65,68)" stroke-width="1" opacity="0.17647058823529413" d="M 157.5 186 L 156.5 188 L 157.5 186 Z " /><path fill="rgb(66,65,68)" stroke="rgb(66,65,68)" stroke-width="1" opacity="0.17647058823529413" d="M 191.5 186 L 189 189.5 L 188.5 191 L 188 189.5 L 191.5 186 Z " /><path fill="rgb(66,65,68)" stroke="rgb(66,65,68)" stroke-width="1" opacity="0.17647058823529413" d="M 288.5 186 Q 290.9 188.1 290 193.5 L 289 193.5 L 288.5 186 Z " /><path fill="rgb(66,65,68)" stroke="rgb(66,65,68)" stroke-width="1" opacity="0.17647058823529413" d="M 318.5 186 L 318 187.5 L 307.5 200 L 312 194.5 L 318.5 186 Z " /><path fill="rgb(66,65,68)" stroke="rgb(66,65,68)" stroke-width="1" opacity="0.17647058823529413" d="M 68.5 187 L 67.5 189 L 68.5 187 Z " /><path fill="rgb(66,65,68)" stroke="rgb(66,65,68)" stroke-width="1" opacity="0.17647058823529413" d="M 284.5 187 L 279.5 193 L 284.5 187 Z " /><path fill="rgb(66,65,68)" stroke="rgb(66,65,68)" stroke-width="1" opacity="0.17647058823529413" d="M 334.5 187 L 334 188.5 L 330.5 194 L 330 192.5 L 331 189 L 334.5 187 Z " /><path fill="rgb(66,65,68)" stroke="rgb(66,65,68)" stroke-width="1" opacity="0.17647058823529413" d="M 65.5 188 L 67 190.5 L 64.5 194 L 64 192.5 Q 67.5 191 65 189.5 L 65.5 188 Z " /><path fill="rgb(66,65,68)" stroke="rgb(66,65,68)" stroke-width="1" opacity="0.17647058823529413" d="M 202.5 188 L 203 190.5 L 202 190.5 L 202.5 188 Z " /><path fill="rgb(66,65,68)" stroke="rgb(66,65,68)" stroke-width="1" opacity="0.17647058823529413" d="M 258.5 188 L 255.5 192 L 258.5 188 Z " /><path fill="rgb(66,65,68)" stroke="rgb(66,65,68)" stroke-width="1" opacity="0.17647058823529413" d="M 261.5 188 L 262 190.5 L 258.5 203 L 258 200.5 L 261.5 188 Z " /><path fill="rgb(66,65,68)" stroke="rgb(66,65,68)" stroke-width="1" opacity="0.17647058823529413" d="M 325.5 188 L 324.5 190 L 325.5 188 Z " /><path fill="rgb(66,65,68)" stroke="rgb(66,65,68)" stroke-width="1" opacity="0.17647058823529413" d="M 341.5 188 L 339.5 191 L 341.5 188 Z " /><path fill="rgb(66,65,68)" stroke="rgb(66,65,68)" stroke-width="1" opacity="0.17647058823529413" d="M 359.5 188 L 360 189.5 L 358.5 192 L 358 190.5 L 359.5 188 Z " /><path fill="rgb(66,65,68)" stroke="rgb(66,65,68)" stroke-width="1" opacity="0.17647058823529413" d="M 100.5 189 L 100 190.5 L 98.5 193 L 99 191.5 L 100.5 189 Z " /><path fill="rgb(66,65,68)" stroke="rgb(66,65,68)" stroke-width="1" opacity="0.17647058823529413" d="M 155.5 189 L 153.5 192 L 155.5 189 Z " /><path fill="rgb(66,65,68)" stroke="rgb(66,65,68)" stroke-width="1" opacity="0.17647058823529413" d="M 219.5 189 L 219 190.5 L 218.5 200 L 218 190.5 L 219.5 189 Z " /><path fill="rgb(66,65,68)" stroke="rgb(66,65,68)" stroke-width="1" opacity="0.17647058823529413" d="M 90.5 190 L 91.5 192 Q 88.7 192.7 90.5 190 Z " /><path fill="rgb(66,65,68)" stroke="rgb(66,65,68)" stroke-width="1" opacity="0.17647058823529413" d="M 142.5 190 L 143 192.5 L 142 192.5 L 142.5 190 Z " /><path fill="rgb(66,65,68)" stroke="rgb(66,65,68)" stroke-width="1" opacity="0.17647058823529413" d="M 163.5 190 L 164 192.5 L 163 192.5 L 163.5 190 Z " /><path fill="rgb(66,65,68)" stroke="rgb(66,65,68)" stroke-width="1" opacity="0.17647058823529413" d="M 211.5 191 L 212 199.5 L 211 199.5 L 211.5 191 Z " /><path fill="rgb(66,65,68)" stroke="rgb(66,65,68)" stroke-width="1" opacity="0.17647058823529413" d="M 272.5 191 L 272 192.5 L 270.5 195 L 270 193.5 L 272.5 191 Z " /><path fill="rgb(66,65,68)" stroke="rgb(66,65,68)" stroke-width="1" opacity="0.17647058823529413" d="M 322.5 191 L 322 192.5 L 319.5 196 L 321 193.5 L 322.5 191 Z " /><path fill="rgb(66,65,68)" stroke="rgb(66,65,68)" stroke-width="1" opacity="0.17647058823529413" d="M 170.5 192 L 171 194.5 L 170 194.5 L 170.5 192 Z " /><path fill="rgb(66,65,68)" stroke="rgb(66,65,68)" stroke-width="1" opacity="0.17647058823529413" d="M 186 192 L 188 192.5 L 185 197 Q 182.3 195.9 183 198.5 L 182 198.5 L 186 192 Z " /><path fill="rgb(66,65,68)" stroke="rgb(66,65,68)" stroke-width="1" opacity="0.17647058823529413" d="M 195.5 192 L 196 193.5 L 193.5 202 L 193 199.5 Q 195.3 198.2 194 193.5 L 195.5 192 Z " /><path fill="rgb(66,65,68)" stroke="rgb(66,65,68)" stroke-width="1" opacity="0.17647058823529413" d="M 201.5 192 L 202 195.5 L 201 195.5 L 201.5 192 Z " /><path fill="rgb(66,65,68)" stroke="rgb(66,65,68)" stroke-width="1" opacity="0.17647058823529413" d="M 83.5 193 L 85 195.5 L 84 195.5 L 83.5 193 Z " /><path fill="rgb(66,65,68)" stroke="rgb(66,65,68)" stroke-width="1" opacity="0.17647058823529413" d="M 164.5 194 L 167 200.5 L 165 199.5 L 164.5 194 Z " /><path fill="rgb(66,65,68)" stroke="rgb(66,65,68)" stroke-width="1" opacity="0.17647058823529413" d="M 323.5 194 L 324 196.5 L 322.5 201 L 322 197.5 L 323.5 194 Z " /><path fill="rgb(66,65,68)" stroke="rgb(66,65,68)" stroke-width="1" opacity="0.17647058823529413" d="M 277.5 195 L 277 196.5 L 275.5 199 L 276 197.5 L 277.5 195 Z " /><path fill="rgb(66,65,68)" stroke="rgb(66,65,68)" stroke-width="1" opacity="0.17647058823529413" d="M 96.5 196 L 93.5 200 L 96.5 196 Z " /><path fill="rgb(66,65,68)" stroke="rgb(66,65,68)" stroke-width="1" opacity="0.17647058823529413" d="M 269.5 196 L 269 197.5 L 266 204 L 264 203.5 L 266 200.5 L 265 198.5 L 266 198.5 L 266.5 200 L 269.5 196 Z " /><path fill="rgb(66,65,68)" stroke="rgb(66,65,68)" stroke-width="1" opacity="0.17647058823529413" d="M 362.5 196 L 359.5 200 L 362.5 196 Z " /><path fill="rgb(66,65,68)" stroke="rgb(66,65,68)" stroke-width="1" opacity="0.17647058823529413" d="M 85.5 197 L 87.5 200 L 85.5 197 Z " /><path fill="rgb(66,65,68)" stroke="rgb(66,65,68)" stroke-width="1" opacity="0.17647058823529413" d="M 136.5 197 L 138 199.5 L 136 198.5 L 136.5 197 Z " /><path fill="rgb(66,65,68)" stroke="rgb(66,65,68)" stroke-width="1" opacity="0.17647058823529413" d="M 191.5 197 L 189.5 200 L 191.5 197 Z " /><path fill="rgb(66,65,68)" stroke="rgb(66,65,68)" stroke-width="1" opacity="0.17647058823529413" d="M 200.5 197 L 201 199.5 L 200 199.5 L 200.5 197 Z " /><path fill="rgb(66,65,68)" stroke="rgb(66,65,68)" stroke-width="1" opacity="0.17647058823529413" d="M 56.5 198 L 57 200.5 L 56 200.5 L 56.5 198 Z " /><path fill="rgb(66,65,68)" stroke="rgb(66,65,68)" stroke-width="1" opacity="0.17647058823529413" d="M 317.5 198 L 312.5 204 L 317.5 198 Z " /><path fill="rgb(66,65,68)" stroke="rgb(66,65,68)" stroke-width="1" opacity="0.17647058823529413" d="M 290.5 199 L 292 202.5 L 291 202.5 L 290.5 199 Z " /><path fill="rgb(66,65,68)" stroke="rgb(66,65,68)" stroke-width="1" opacity="0.17647058823529413" d="M 297.5 199 L 299 201.5 L 297 200.5 L 297.5 199 Z " /><path fill="rgb(66,65,68)" stroke="rgb(66,65,68)" stroke-width="1" opacity="0.17647058823529413" d="M 249.5 200 L 248.5 202 L 249.5 200 Z " /><path fill="rgb(66,65,68)" stroke="rgb(66,65,68)" stroke-width="1" opacity="0.17647058823529413" d="M 334.5 200 L 333.5 202 L 334.5 200 Z " /><path fill="rgb(66,65,68)" stroke="rgb(66,65,68)" stroke-width="1" opacity="0.17647058823529413" d="M 188.5 201 L 186.5 204 L 188.5 201 Z " /><path fill="rgb(66,65,68)" stroke="rgb(66,65,68)" stroke-width="1" opacity="0.17647058823529413" d="M 304.5 201 L 303.5 203 L 302 202.5 L 304.5 201 Z " /><path fill="rgb(66,65,68)" stroke="rgb(66,65,68)" stroke-width="1" opacity="0.17647058823529413" d="M 167.5 202 L 170 205.5 L 167 203.5 L 167.5 202 Z " /><path fill="rgb(66,65,68)" stroke="rgb(66,65,68)" stroke-width="1" opacity="0.17647058823529413" d="M 321.5 203 L 322 211.5 L 321 211.5 L 321.5 203 Z " /><path fill="rgb(66,65,68)" stroke="rgb(66,65,68)" stroke-width="1" opacity="0.17647058823529413" d="M 332.5 203 L 331.5 205 L 332.5 203 Z " /><path fill="rgb(66,65,68)" stroke="rgb(66,65,68)" stroke-width="1" opacity="0.17647058823529413" d="M 192.5 204 L 193 206.5 L 192 206.5 L 192.5 204 Z " /><path fill="rgb(66,65,68)" stroke="rgb(66,65,68)" stroke-width="1" opacity="0.17647058823529413" d="M 212.5 204 Q 214.4 210.6 219.5 214 L 221 214.5 L 219.5 215 Q 213 211.3 212.5 204 Z " /><path fill="rgb(66,65,68)" stroke="rgb(66,65,68)" stroke-width="1" opacity="0.17647058823529413" d="M 257.5 204 L 258 207.5 L 257 207.5 L 257.5 204 Z " /><path fill="rgb(66,65,68)" stroke="rgb(66,65,68)" stroke-width="1" opacity="0.17647058823529413" d="M 292.5 204 L 297 209.5 L 295.5 209 Q 293.3 209.8 294 207.5 Q 291 206.5 292.5 204 Z " /><path fill="rgb(66,65,68)" stroke="rgb(66,65,68)" stroke-width="1" opacity="0.17647058823529413" d="M 55.5 206 L 56 212 L 58 212.5 L 56.5 213 Q 53.4 211.4 55.5 206 Z " /><path fill="rgb(66,65,68)" stroke="rgb(66,65,68)" stroke-width="1" opacity="0.17647058823529413" d="M 308.5 206 L 306.5 209 L 308.5 206 Z " /><path fill="rgb(66,65,68)" stroke="rgb(66,65,68)" stroke-width="1" opacity="0.17647058823529413" d="M 242.5 207 L 241.5 209 L 242.5 207 Z " /><path fill="rgb(66,65,68)" stroke="rgb(66,65,68)" stroke-width="1" opacity="0.17647058823529413" d="M 329.5 208 L 330 209.5 L 328 210.5 L 329.5 208 Z " /><path fill="rgb(66,65,68)" stroke="rgb(66,65,68)" stroke-width="1" opacity="0.17647058823529413" d="M 198.5 209 L 199 211.5 L 198 211.5 L 198.5 209 Z " /><path fill="rgb(66,65,68)" stroke="rgb(66,65,68)" stroke-width="1" opacity="0.17647058823529413" d="M 223.5 209 L 229 209.5 L 223.5 210 L 223.5 209 Z " /><path fill="rgb(66,65,68)" stroke="rgb(66,65,68)" stroke-width="1" opacity="0.17647058823529413" d="M 62.5 210 L 60.5 213 L 62.5 210 Z " /><path fill="rgb(66,65,68)" stroke="rgb(66,65,68)" stroke-width="1" opacity="0.17647058823529413" d="M 256.5 210 L 257 211.5 L 254.5 221 L 254 217.5 L 256.5 210 Z " /><path fill="rgb(66,65,68)" stroke="rgb(66,65,68)" stroke-width="1" opacity="0.17647058823529413" d="M 269.5 210 L 268.5 212 L 269.5 210 Z " /><path fill="rgb(66,65,68)" stroke="rgb(66,65,68)" stroke-width="1" opacity="0.17647058823529413" d="M 299.5 210 L 302 210.5 L 299.5 211 L 299.5 210 Z " /><path fill="rgb(66,65,68)" stroke="rgb(66,65,68)" stroke-width="1" opacity="0.17647058823529413" d="M 191.5 211 L 191 212.5 L 190.5 217 L 190 212.5 L 191.5 211 Z " /><path fill="rgb(66,65,68)" stroke="rgb(66,65,68)" stroke-width="1" opacity="0.17647058823529413" d="M 424.5 211 L 425 212.5 L 415 223.5 L 403.5 241 L 403 239.5 L 424.5 211 Z " /><path fill="rgb(66,65,68)" stroke="rgb(66,65,68)" stroke-width="1" opacity="0.17647058823529413" d="M 235.5 212 L 234.5 214 L 232.5 215 L 233.5 213 L 235.5 212 Z " /><path fill="rgb(66,65,68)" stroke="rgb(66,65,68)" stroke-width="1" opacity="0.17647058823529413" d="M 223.5 215 L 229 215.5 L 223.5 216 L 223.5 215 Z " /><path fill="rgb(66,65,68)" stroke="rgb(66,65,68)" stroke-width="1" opacity="0.17647058823529413" d="M 266.5 216 L 266 217.5 L 265.5 219 L 265 217.5 L 266.5 216 Z " /><path fill="rgb(66,65,68)" stroke="rgb(66,65,68)" stroke-width="1" opacity="0.17647058823529413" d="M 189.5 218 L 190 220.5 L 189 220.5 L 189.5 218 Z " /><path fill="rgb(66,65,68)" stroke="rgb(66,65,68)" stroke-width="1" opacity="0.17647058823529413" d="M 196.5 218 L 197 220.5 L 196 220.5 L 196.5 218 Z " /><path fill="rgb(66,65,68)" stroke="rgb(66,65,68)" stroke-width="1" opacity="0.17647058823529413" d="M 426.5 219 Q 429.5 218.1 428 222.5 L 427 222.5 L 426.5 219 Z " /><path fill="rgb(66,65,68)" stroke="rgb(66,65,68)" stroke-width="1" opacity="0.17647058823529413" d="M 188.5 222 L 189 226.5 L 188 226.5 L 188.5 222 Z " /><path fill="rgb(66,65,68)" stroke="rgb(66,65,68)" stroke-width="1" opacity="0.17647058823529413" d="M 263.5 222 L 264 224.5 L 263 224.5 L 263.5 222 Z " /><path fill="rgb(66,65,68)" stroke="rgb(66,65,68)" stroke-width="1" opacity="0.17647058823529413" d="M 424.5 222 L 423 224.5 L 422.5 226 L 422 224.5 L 424.5 222 Z " /><path fill="rgb(66,65,68)" stroke="rgb(66,65,68)" stroke-width="1" opacity="0.17647058823529413" d="M 253.5 223 L 254 225.5 L 253 225.5 L 253.5 223 Z " /><path fill="rgb(66,65,68)" stroke="rgb(66,65,68)" stroke-width="1" opacity="0.17647058823529413" d="M 426.5 224 L 427 227.5 L 426 227.5 L 426.5 224 Z " /><path fill="rgb(66,65,68)" stroke="rgb(66,65,68)" stroke-width="1" opacity="0.17647058823529413" d="M 433.5 224 L 434 226.5 L 433 226.5 L 433.5 224 Z " /><path fill="rgb(66,65,68)" stroke="rgb(66,65,68)" stroke-width="1" opacity="0.17647058823529413" d="M 194.5 227 L 195 229.5 L 194 229.5 L 194.5 227 Z " /><path fill="rgb(66,65,68)" stroke="rgb(66,65,68)" stroke-width="1" opacity="0.17647058823529413" d="M 420.5 227 L 419 229.5 L 415.5 234 L 418 230.5 L 420.5 227 Z " /><path fill="rgb(66,65,68)" stroke="rgb(66,65,68)" stroke-width="1" opacity="0.17647058823529413" d="M 425.5 229 L 426 232.5 L 425 232.5 L 425.5 229 Z " /><path fill="rgb(66,65,68)" stroke="rgb(66,65,68)" stroke-width="1" opacity="0.17647058823529413" d="M 252.5 231 L 253 234.5 L 252 238.5 L 256 240.5 L 253.5 241 Q 250.3 240.3 251 235.5 L 252.5 231 Z " /><path fill="rgb(66,65,68)" stroke="rgb(66,65,68)" stroke-width="1" opacity="0.17647058823529413" d="M 187.5 232 L 188 233.5 L 186.5 236 L 186 234.5 L 187.5 232 Z " /><path fill="rgb(66,65,68)" stroke="rgb(66,65,68)" stroke-width="1" opacity="0.17647058823529413" d="M 431.5 234 L 432 236.5 L 431 236.5 L 431.5 234 Z " /><path fill="rgb(66,65,68)" stroke="rgb(66,65,68)" stroke-width="1" opacity="0.17647058823529413" d="M 192.5 236 L 193 239.5 L 192 239.5 L 192.5 236 Z " /><path fill="rgb(66,65,68)" stroke="rgb(66,65,68)" stroke-width="1" opacity="0.17647058823529413" d="M 258.5 236 L 259 237.5 L 257 238.5 L 258.5 236 Z " /><path fill="rgb(66,65,68)" stroke="rgb(66,65,68)" stroke-width="1" opacity="0.17647058823529413" d="M 413.5 237 L 412.5 239 L 413.5 237 Z " /><path fill="rgb(66,65,68)" stroke="rgb(66,65,68)" stroke-width="1" opacity="0.17647058823529413" d="M 424.5 237 L 425 240.5 L 423.5 245 L 423 241.5 L 424.5 237 Z " /><path fill="rgb(66,65,68)" stroke="rgb(66,65,68)" stroke-width="1" opacity="0.17647058823529413" d="M 185.5 240 L 186 242.5 L 185 242.5 L 185.5 240 Z " /><path fill="rgb(66,65,68)" stroke="rgb(66,65,68)" stroke-width="1" opacity="0.17647058823529413" d="M 411.5 240 L 410.5 242 L 411.5 240 Z " /><path fill="rgb(66,65,68)" stroke="rgb(66,65,68)" stroke-width="1" opacity="0.17647058823529413" d="M 402.5 242 L 401 244.5 L 397.5 251 L 397 249.5 L 402.5 242 Z " /><path fill="rgb(66,65,68)" stroke="rgb(66,65,68)" stroke-width="1" opacity="0.17647058823529413" d="M 409.5 243 L 407.5 246 L 409.5 243 Z " /><path fill="rgb(66,65,68)" stroke="rgb(66,65,68)" stroke-width="1" opacity="0.17647058823529413" d="M 429.5 243 L 430 245.5 L 429 245.5 L 429.5 243 Z " /><path fill="rgb(66,65,68)" stroke="rgb(66,65,68)" stroke-width="1" opacity="0.17647058823529413" d="M 184.5 244 L 185 248.5 L 184 248.5 L 184.5 244 Z " /><path fill="rgb(66,65,68)" stroke="rgb(66,65,68)" stroke-width="1" opacity="0.17647058823529413" d="M 190.5 246 L 191 248.5 L 190 248.5 L 190.5 246 Z " /><path fill="rgb(66,65,68)" stroke="rgb(66,65,68)" stroke-width="1" opacity="0.17647058823529413" d="M 422.5 246 L 423 249.5 L 419.5 262 L 419 259.5 L 422.5 246 Z " /><path fill="rgb(66,65,68)" stroke="rgb(66,65,68)" stroke-width="1" opacity="0.17647058823529413" d="M 183.5 250 L 184 253.5 L 183 253.5 L 183.5 250 Z " /><path fill="rgb(66,65,68)" stroke="rgb(66,65,68)" stroke-width="1" opacity="0.17647058823529413" d="M 396.5 252 L 396 253.5 L 394.5 256 L 395 254.5 L 396.5 252 Z " /><path fill="rgb(66,65,68)" stroke="rgb(66,65,68)" stroke-width="1" opacity="0.17647058823529413" d="M 402.5 255 L 401.5 257 L 402.5 255 Z " /><path fill="rgb(66,65,68)" stroke="rgb(66,65,68)" stroke-width="1" opacity="0.17647058823529413" d="M 188.5 256 L 189 262.5 L 188 262.5 L 188.5 256 Z " /><path fill="rgb(66,65,68)" stroke="rgb(66,65,68)" stroke-width="1" opacity="0.17647058823529413" d="M 182.5 257 L 183 258.5 L 181.5 264 L 181 259.5 L 182.5 257 Z " /><path fill="rgb(66,65,68)" stroke="rgb(66,65,68)" stroke-width="1" opacity="0.17647058823529413" d="M 426.5 257 L 427 259.5 L 426 259.5 L 426.5 257 Z " /><path fill="rgb(66,65,68)" stroke="rgb(66,65,68)" stroke-width="1" opacity="0.17647058823529413" d="M 392.5 259 L 393 261.5 L 385.5 278 L 385 275.5 L 392.5 259 Z " /><path fill="rgb(66,65,68)" stroke="rgb(66,65,68)" stroke-width="1" opacity="0.17647058823529413" d="M 398.5 262 L 399 263.5 L 397 264.5 L 398.5 262 Z " /><path fill="rgb(66,65,68)" stroke="rgb(66,65,68)" stroke-width="1" opacity="0.17647058823529413" d="M 418.5 263 L 419 265.5 L 418 265.5 L 418.5 263 Z " /><path fill="rgb(66,65,68)" stroke="rgb(66,65,68)" stroke-width="1" opacity="0.17647058823529413" d="M 180.5 265 L 181 268.5 L 180 268.5 L 180.5 265 Z " /><path fill="rgb(66,65,68)" stroke="rgb(66,65,68)" stroke-width="1" opacity="0.17647058823529413" d="M 187.5 265 L 188 267.5 L 187 267.5 L 187.5 265 Z " /><path fill="rgb(66,65,68)" stroke="rgb(66,65,68)" stroke-width="1" opacity="0.17647058823529413" d="M 396.5 266 L 397 267.5 L 395 268.5 L 396.5 266 Z " /><path fill="rgb(66,65,68)" stroke="rgb(66,65,68)" stroke-width="1" opacity="0.17647058823529413" d="M 424.5 267 L 425 269.5 L 424 269.5 L 424.5 267 Z " /><path fill="rgb(66,65,68)" stroke="rgb(66,65,68)" stroke-width="1" opacity="0.17647058823529413" d="M 186.5 270 L 187 272.5 L 186 272.5 L 186.5 270 Z " /><path fill="rgb(66,65,68)" stroke="rgb(66,65,68)" stroke-width="1" opacity="0.17647058823529413" d="M 394.5 270 L 395 272.5 L 394 272.5 L 394.5 270 Z " /><path fill="rgb(66,65,68)" stroke="rgb(66,65,68)" stroke-width="1" opacity="0.17647058823529413" d="M 416.5 270 L 417 273.5 L 416 273.5 L 416.5 270 Z " /><path fill="rgb(66,65,68)" stroke="rgb(66,65,68)" stroke-width="1" opacity="0.17647058823529413" d="M 179.5 271 L 180 274.5 L 179 274.5 L 179.5 271 Z " /><path fill="rgb(66,65,68)" stroke="rgb(66,65,68)" stroke-width="1" opacity="0.17647058823529413" d="M 415.5 275 L 416 276.5 L 414.5 282 L 414 277.5 L 415.5 275 Z " /><path fill="rgb(66,65,68)" stroke="rgb(66,65,68)" stroke-width="1" opacity="0.17647058823529413" d="M 185.5 276 L 186 279.5 L 185 279.5 L 185.5 276 Z " /><path fill="rgb(66,65,68)" stroke="rgb(66,65,68)" stroke-width="1" opacity="0.17647058823529413" d="M 178.5 278 L 179 280.5 L 178 280.5 L 178.5 278 Z " /><path fill="rgb(66,65,68)" stroke="rgb(66,65,68)" stroke-width="1" opacity="0.17647058823529413" d="M 384.5 279 L 385 281.5 L 382.5 288 L 382 285.5 L 384.5 279 Z " /><path fill="rgb(66,65,68)" stroke="rgb(66,65,68)" stroke-width="1" opacity="0.17647058823529413" d="M 177.5 282 L 178 298 L 180 298.5 L 178.5 299 L 177 297.5 L 177.5 282 Z " /><path fill="rgb(66,65,68)" stroke="rgb(66,65,68)" stroke-width="1" opacity="0.17647058823529413" d="M 184.5 282 L 185 285.5 L 184 285.5 L 184.5 282 Z " /><path fill="rgb(66,65,68)" stroke="rgb(66,65,68)" stroke-width="1" opacity="0.17647058823529413" d="M 390.5 282 L 391 284.5 L 390 284.5 L 390.5 282 Z " /><path fill="rgb(66,65,68)" stroke="rgb(66,65,68)" stroke-width="1" opacity="0.17647058823529413" d="M 420.5 282 L 421 284.5 L 420 284.5 L 420.5 282 Z " /><path fill="rgb(66,65,68)" stroke="rgb(66,65,68)" stroke-width="1" opacity="0.17647058823529413" d="M 413.5 284 L 414 285.5 L 410.5 293 L 411 291.5 L 412 285.5 L 413.5 284 Z " /><path fill="rgb(66,65,68)" stroke="rgb(66,65,68)" stroke-width="1" opacity="0.17647058823529413" d="M 184.5 287 Q 187.8 287.8 187 292.5 L 186 292.5 Q 186.4 287.8 184.5 287 Z " /><path fill="rgb(66,65,68)" stroke="rgb(66,65,68)" stroke-width="1" opacity="0.17647058823529413" d="M 389.5 288 L 389 289.5 L 388.5 291 L 388 289.5 L 389.5 288 Z " /><path fill="rgb(66,65,68)" stroke="rgb(66,65,68)" stroke-width="1" opacity="0.17647058823529413" d="M 381.5 292 L 382 294.5 L 381 294.5 L 381.5 292 Z " /><path fill="rgb(66,65,68)" stroke="rgb(66,65,68)" stroke-width="1" opacity="0.17647058823529413" d="M 184.5 296 L 183.5 298 L 184.5 296 Z " /><path fill="rgb(66,65,68)" stroke="rgb(66,65,68)" stroke-width="1" opacity="0.17647058823529413" d="M 380.5 296 L 381 299.5 L 380 299.5 L 380.5 296 Z " /><path fill="rgb(66,65,68)" stroke="rgb(66,65,68)" stroke-width="1" opacity="0.17647058823529413" d="M 386.5 298 L 387 300.5 L 386 300.5 L 386.5 298 Z " /><path fill="rgb(66,65,68)" stroke="rgb(66,65,68)" stroke-width="1" opacity="0.17647058823529413" d="M 408.5 299 L 409 300.5 L 404.5 310 L 405 308.5 L 408.5 299 Z " /><path fill="rgb(66,65,68)" stroke="rgb(66,65,68)" stroke-width="1" opacity="0.17647058823529413" d="M 414.5 301 L 415 303.5 L 414 303.5 L 414.5 301 Z " /><path fill="rgb(66,65,68)" stroke="rgb(66,65,68)" stroke-width="1" opacity="0.17647058823529413" d="M 379.5 302 L 380 306.5 L 379 306.5 L 379.5 302 Z " /><path fill="rgb(66,65,68)" stroke="rgb(66,65,68)" stroke-width="1" opacity="0.17647058823529413" d="M 385.5 305 L 386 308.5 L 385 308.5 L 385.5 305 Z " /><path fill="rgb(66,65,68)" stroke="rgb(66,65,68)" stroke-width="1" opacity="0.17647058823529413" d="M 411.5 310 L 412 311.5 L 410 312.5 L 411.5 310 Z " /><path fill="rgb(66,65,68)" stroke="rgb(66,65,68)" stroke-width="1" opacity="0.17647058823529413" d="M 403.5 311 L 404 313.5 L 394.5 330 L 391.5 332 L 390 332.5 Q 400.1 325.1 403.5 311 Z " /><path fill="rgb(66,65,68)" stroke="rgb(66,65,68)" stroke-width="1" opacity="0.17647058823529413" d="M 384.5 314 L 385 316.5 L 384 316.5 L 384.5 314 Z " /><path fill="rgb(66,65,68)" stroke="rgb(66,65,68)" stroke-width="1" opacity="0.17647058823529413" d="M 378.5 317 L 379 320.5 L 378 320.5 L 378.5 317 Z " /><path fill="rgb(66,65,68)" stroke="rgb(66,65,68)" stroke-width="1" opacity="0.17647058823529413" d="M 408.5 317 L 409 318.5 L 407 319.5 L 408.5 317 Z " /><path fill="rgb(66,65,68)" stroke="rgb(66,65,68)" stroke-width="1" opacity="0.17647058823529413" d="M 385.5 321 L 386 324.5 L 385 324.5 L 385.5 321 Z " /><path fill="rgb(66,65,68)" stroke="rgb(66,65,68)" stroke-width="1" opacity="0.17647058823529413" d="M 379.5 325 L 381 329.5 L 379 328.5 L 379.5 325 Z " /><path fill="rgb(66,65,68)" stroke="rgb(66,65,68)" stroke-width="1" opacity="0.17647058823529413" d="M 386.5 328 L 388 330.5 L 386 329.5 L 386.5 328 Z " /><path fill="rgb(66,65,68)" stroke="rgb(66,65,68)" stroke-width="1" opacity="0.17647058823529413" d="M 402.5 329 L 401.5 331 L 402.5 329 Z " /><path fill="rgb(66,65,68)" stroke="rgb(66,65,68)" stroke-width="1" opacity="0.17647058823529413" d="M 400.5 332 L 395.5 338 L 400.5 332 Z " /><path fill="rgb(66,65,68)" stroke="rgb(66,65,68)" stroke-width="1" opacity="0.17647058823529413" d="M 381.5 334 L 385.5 339 L 382 336.5 L 381.5 334 Z " /><path fill="rgb(0,0,0)" stroke="rgb(0,0,0)" stroke-width="1" opacity="0" d="M 0 0 L 678 0 L 678 368 L 0 368 L 0 0 Z M 488 32 L 476 35 L 473 37 L 467 37 L 449 42 L 446 46 L 446 48 L 439 48 L 438 50 L 424 54 L 422 59 L 419 61 L 412 62 L 403 68 L 394 71 Q 391 73 392 78 L 387 76 L 381 80 L 374 76 L 372 74 L 368 70 L 365 76 Q 364 79 359 78 L 364 92 L 363 91 Q 354 88 357 97 L 365 103 L 366 100 L 370 97 Q 370 103 375 107 Q 374 109 377 108 L 377 110 L 384 114 L 392 116 L 407 116 L 408 115 L 419 115 L 420 114 L 453 114 L 463 110 L 466 110 L 470 114 L 473 114 L 480 119 L 490 123 L 497 125 L 505 125 L 507 125 Q 508 128 515 126 L 521 134 L 534 140 L 543 140 L 543 142 L 551 145 L 556 144 L 560 145 Q 562 144 561 147 L 565 149 L 576 150 L 575 154 L 583 160 Q 585 159 584 162 L 586 162 L 586 164 L 608 179 L 621 186 L 628 188 L 630 190 Q 636 189 640 192 L 652 192 L 653 191 Q 656 192 655 190 L 655 188 Q 657 182 652 184 Q 651 181 654 182 L 654 179 L 651 178 L 658 176 L 657 172 L 648 173 L 645 171 L 640 159 L 641 151 L 635 146 L 637 141 L 635 137 L 635 135 L 632 135 Q 633 132 630 133 L 628 128 L 628 117 L 626 113 L 615 111 L 613 110 L 613 102 L 609 102 L 609 104 L 607 105 L 611 98 L 609 93 L 604 89 L 602 89 L 602 84 L 598 84 L 598 77 L 594 72 L 591 70 L 590 67 L 588 68 L 586 68 L 578 61 L 566 61 L 548 66 L 541 70 L 533 72 L 518 54 Q 519 51 516 52 L 516 50 L 514 50 L 514 48 L 499 37 L 496 37 L 490 32 L 488 32 Z M 303 59 L 301 60 L 295 68 Q 296 71 293 70 L 284 93 L 280 111 L 264 111 L 263 112 Q 258 110 250 111 L 248 111 L 238 111 L 237 112 L 236 111 L 222 111 L 220 112 L 223 105 L 226 89 L 229 82 L 229 78 L 226 75 L 222 76 L 220 81 L 220 87 L 218 90 L 218 94 L 214 105 L 213 113 L 212 112 Q 207 111 206 113 L 204 112 L 202 113 L 197 112 L 155 113 Q 153 118 157 120 L 194 119 L 196 119 L 200 118 L 203 119 L 211 118 Q 212 122 209 125 L 209 132 L 207 136 L 207 140 L 205 144 L 205 148 L 203 152 L 203 156 L 201 160 L 198 175 L 186 194 Q 183 200 175 200 L 171 195 L 169 187 L 169 181 L 167 179 L 168 169 L 166 168 L 162 169 L 147 188 L 145 191 L 143 192 L 146 178 L 150 171 L 150 169 L 152 169 L 158 162 L 163 162 L 168 167 L 171 166 Q 173 167 172 161 Q 169 155 162 154 Q 154 154 150 158 L 143 169 L 130 182 L 124 185 L 124 187 L 123 186 L 120 187 L 116 184 L 113 174 Q 112 168 114 167 L 113 163 L 108 163 L 104 165 L 92 190 L 90 190 L 90 167 Q 89 163 84 164 L 72 179 L 69 186 L 67 187 L 71 175 L 70 172 L 73 169 L 77 159 L 76 156 Q 77 153 71 154 L 59 183 L 54 208 L 55 212 L 59 214 L 63 212 L 71 196 L 82 179 Q 81 191 85 199 L 89 201 L 93 201 L 96 199 L 103 187 L 103 184 L 103 182 L 105 181 L 107 178 L 108 180 L 108 184 L 110 189 L 118 194 L 124 194 L 123 193 L 125 193 L 133 190 L 136 188 L 135 190 L 136 199 Q 138 203 146 201 L 153 194 L 152 193 L 154 193 L 154 192 L 157 190 Q 156 187 159 186 Q 158 183 161 184 L 162 186 L 162 191 L 166 203 Q 169 209 179 209 L 178 208 L 180 208 L 186 205 L 192 198 L 194 197 L 190 211 Q 191 217 188 221 L 188 229 L 186 233 Q 186 242 183 248 L 183 254 L 181 258 Q 182 265 179 269 L 179 275 L 177 280 L 177 298 L 180 299 L 182 299 L 185 298 L 187 294 Q 189 287 185 288 Q 184 280 187 276 L 187 269 L 189 265 L 189 256 L 191 252 L 193 237 L 198 218 L 198 213 L 200 209 Q 202 203 199 202 L 202 197 L 204 184 L 211 157 L 210 152 L 213 147 L 213 143 L 219 119 L 225 118 L 277 118 L 276 126 L 274 130 L 274 136 L 267 160 L 267 165 L 250 188 Q 251 190 248 189 L 244 196 Q 238 204 229 209 L 223 208 L 219 201 L 219 191 Q 222 187 221 181 L 225 174 L 225 172 L 230 169 Q 228 171 229 177 Q 230 180 235 179 L 237 176 Q 238 167 236 163 L 233 161 Q 226 160 224 163 Q 217 169 214 178 L 211 190 Q 209 203 214 211 L 221 216 L 232 216 L 239 212 L 240 210 L 243 209 Q 242 206 245 207 L 253 197 L 253 195 L 255 194 L 260 187 L 262 186 L 255 212 L 254 222 L 252 226 L 252 235 L 251 236 L 252 240 Q 251 243 257 241 L 260 236 L 268 214 L 280 193 L 288 186 Q 290 189 289 197 L 293 208 L 298 211 L 306 210 L 317 201 L 320 196 L 323 194 L 321 201 L 321 212 Q 322 215 327 214 L 338 197 L 340 191 L 349 179 L 349 195 L 351 199 L 355 201 L 360 201 L 365 195 L 373 177 L 375 187 L 377 189 Q 376 191 379 190 L 379 192 L 384 194 L 390 194 L 397 190 L 401 190 L 401 192 L 411 201 Q 413 200 412 203 L 414 203 L 414 205 L 424 211 Q 425 214 422 213 L 417 220 Q 418 222 416 221 L 409 231 Q 410 233 407 232 L 394 255 L 385 276 L 381 289 L 381 296 L 379 300 L 379 309 L 378 312 L 379 330 L 381 332 L 382 337 Q 384 340 389 340 L 391 340 L 397 337 Q 399 338 398 335 L 400 335 L 409 320 L 415 305 L 415 301 L 423 279 L 424 271 L 426 267 L 426 261 L 428 257 L 428 252 L 432 240 L 434 225 L 437 219 Q 445 225 457 227 L 459 229 L 489 238 L 501 244 L 506 244 L 529 253 L 549 253 L 567 245 L 572 248 L 596 234 L 597 231 L 607 231 L 609 228 L 611 228 Q 615 228 617 225 Q 616 222 620 223 Q 623 225 621 231 Q 619 232 622 233 L 629 233 L 635 230 Q 636 225 633 225 Q 632 222 639 223 L 643 219 L 643 217 L 638 213 Q 634 212 635 206 Q 633 202 631 207 L 630 204 L 627 200 L 622 199 L 619 193 L 615 193 L 605 188 L 602 184 L 597 178 L 576 167 L 557 163 L 521 163 L 511 189 L 510 189 L 515 171 L 501 160 L 498 160 L 497 165 Q 494 169 489 170 Q 491 168 490 163 L 492 159 L 492 153 L 490 149 L 473 137 L 448 126 L 441 131 L 439 131 Q 443 129 442 124 L 419 119 L 403 120 L 395 123 Q 379 125 373 118 L 369 124 Q 364 123 363 126 L 364 137 L 369 147 L 374 146 L 375 146 Q 373 154 380 151 L 379 157 L 382 161 L 386 172 L 394 183 Q 391 186 386 187 L 383 185 L 381 179 L 381 167 L 380 165 Q 379 162 374 163 L 368 170 L 358 191 L 356 189 L 356 167 Q 355 163 350 164 L 345 170 Q 346 172 343 171 L 338 180 Q 339 183 336 182 L 334 188 L 333 188 L 335 179 L 338 173 L 337 171 L 339 170 L 340 164 L 343 158 L 342 156 L 342 154 L 336 154 L 332 166 L 330 168 Q 331 170 328 169 Q 328 175 323 179 Q 324 181 321 180 L 317 187 Q 318 190 316 189 L 310 197 L 304 202 L 299 203 L 296 198 Q 294 191 297 190 Q 297 181 292 178 Q 282 176 280 182 Q 277 181 278 184 L 276 184 L 267 200 L 266 200 L 269 190 L 269 185 L 275 166 L 275 159 L 281 140 L 281 136 L 288 121 L 291 118 L 317 118 L 322 120 L 326 119 L 327 117 L 326 113 L 318 111 L 294 111 L 307 82 Q 306 75 309 73 L 309 62 Q 308 58 303 59 Z " /><path fill="rgb(0,0,0)" stroke="rgb(0,0,0)" stroke-width="1" opacity="0" d="M 298.5 78 L 298 79.5 L 297.5 81 L 297 79.5 L 298.5 78 Z " /><path fill="rgb(0,0,0)" stroke="rgb(0,0,0)" stroke-width="1" opacity="0" d="M 294.5 88 L 295 90.5 L 293 91.5 L 294.5 88 Z " /><path fill="rgb(0,0,0)" stroke="rgb(0,0,0)" stroke-width="1" opacity="0" d="M 424 223 Q 427.3 221.7 426 226.5 L 424 232.5 L 424 240.5 Q 421.2 243.2 422 249.5 L 420 253.5 L 416 273.5 L 414 276.5 L 414 282.5 L 412 285.5 L 407 303.5 L 405 305.5 L 403 313.5 L 399 321.5 L 390.5 332 L 388 330.5 L 385 320.5 L 385 309.5 L 389 289.5 L 394 274.5 L 393.5 273 Q 395.8 273.8 395 271.5 L 407 247.5 L 424 223 Z " /><path fill="rgb(21,15,17)" stroke="rgb(21,15,17)" stroke-width="1" opacity="0.8705882352941177" d="M 303.5 60 Q 307.3 59.3 308 61.5 L 308 72.5 L 306 80.5 L 293 112 L 317.5 112 Q 318.8 114.3 323.5 113 L 325 114.5 Q 327.3 121.3 320.5 119 L 314.5 117 L 289.5 117 L 280 135.5 L 267 190.5 L 267 194.5 L 264 203.5 L 266 204 Q 271 190.3 281.5 181 Q 283.8 177.8 290.5 179 L 293 180 L 296 186.5 Q 294.3 198.9 299 204 L 303.5 203 L 314 193.5 L 327 175.5 L 328 171.5 L 332 167.5 L 337 155 L 339.5 154 Q 342.5 154.5 342 158.5 L 336 172.5 L 331 191.5 L 334 189.5 Q 340 175 350.5 165 Q 354.3 164.3 355 166.5 L 355 188.5 L 356 192 Q 359.7 193.5 359 190.5 Q 364.2 175.2 373.5 164 Q 379.6 162.8 379 165.5 L 380 166.5 L 381 181.5 L 384.5 187 L 386.5 188 L 403 178 L 409 170.5 L 413 158 L 415.5 157 L 418 158 Q 418.8 164.9 415 168.5 L 414 181.5 L 416.5 188 L 422 186 L 436 165.5 L 437 161 L 440.5 160 Q 444 161 443 166.5 L 441 173.5 L 440 186.5 L 438 192.5 L 438 198.5 L 444.5 193 L 447 191.5 Q 446.3 189.3 448.5 190 L 469.5 174 L 477.5 169 L 480 169 L 481 173.5 L 457.5 190 L 436 209.5 L 435 219.5 L 431 234.5 L 431 239.5 L 429 243.5 L 429 248.5 L 425 261.5 L 424 271.5 L 414 304.5 L 403 328.5 L 394.5 338 L 386.5 339 Q 381.1 335.9 380 328.5 L 379 311.5 L 380 308.5 L 380 300.5 L 382 294.5 L 382 288.5 L 389 268.5 L 393 261.5 L 393 258.5 L 407 234.5 L 425 211 L 428 209.5 L 430 206.5 L 432 200.5 L 435 178.5 L 432 180.5 L 426 190 L 419.5 194 L 415.5 194 L 411 190.5 L 409 187.5 L 407.5 180 Q 400.7 192.2 382.5 193 L 377 187.5 L 373.5 175 L 364 194.5 L 358.5 200 Q 353 201 352 197.5 L 350 193.5 L 349 181.5 L 350 178 L 345 181.5 L 331 204.5 L 328 212 L 324.5 213 L 322 212 L 322 201.5 L 325 189.5 L 321 192.5 Q 317.3 201.3 309.5 206 L 303.5 210 L 297.5 210 L 292 203.5 L 290 188.5 L 287.5 185 Q 284.2 183.9 285 186.5 L 276 196.5 L 268 211.5 L 257 240 Q 253.2 241 252 238.5 L 253 226.5 L 263 186.5 L 263 182.5 L 261 183.5 L 252 197.5 L 238.5 211 L 231.5 215 L 221.5 215 L 215 209.5 Q 210.5 203 212 190.5 L 215 178.5 L 220 168.5 L 226.5 162 Q 233.5 160.5 235 164.5 L 237 171.5 L 235 178 L 231 178 L 231 176.5 L 230 173.5 L 231 168 Q 226.3 167.3 225 171.5 L 220 180.5 Q 220.7 187.2 218 190.5 L 218 199.5 L 220 206.5 L 223.5 210 L 230.5 209 L 243 198.5 L 264.5 169 L 267 167.5 L 271 148.5 L 273 144.5 L 275 130.5 L 279 117 L 234.5 117 L 233.5 118 L 219.5 118 L 218 119.5 L 210 151.5 L 209 162.5 L 207 166.5 L 199 201.5 L 199 208.5 L 188 256.5 L 188 264.5 L 186 270.5 L 184 287.5 Q 187 288.5 186 293.5 L 182.5 298 Q 178 298.5 178 297.5 L 178 281.5 L 185 248.5 L 185 243.5 L 188 233.5 L 189 221.5 L 196 192.5 L 193 194.5 L 185.5 204 Q 181.7 207.7 174.5 208 L 168 203.5 L 164 193.5 L 161.5 181 L 145.5 200 L 141.5 201 L 137 198.5 L 136 189.5 L 137 185.5 L 132.5 189 L 122.5 193 L 116.5 193 L 112 189.5 L 109 183.5 L 107.5 175 L 104 179.5 L 102 186.5 L 97 195.5 L 92.5 200 Q 86 201 85 196.5 Q 81.7 188.8 82.5 177 L 72 191.5 L 63 209.5 L 59.5 213 L 56 212 L 56 201.5 L 58 196.5 L 60 183.5 L 70 155 L 73.5 154 Q 76.5 154.5 76 158.5 L 71 168.5 L 65 191.5 L 67 190.5 L 72 180.5 L 83.5 165 Q 88 164 89 166.5 L 89 188.5 L 90 192 Q 92.7 193.1 92 190.5 L 102 170.5 L 107.5 164 Q 112 163 113 165.5 L 113 173.5 L 115 183.5 L 119.5 188 Q 134.1 183.1 142 171.5 L 147 162.5 L 152.5 157 L 161.5 155 Q 168.1 155.9 171 160.5 L 172 163.5 Q 171.5 166.5 167.5 166 L 166 163 Q 163.7 160.4 157.5 161 L 147 173.5 L 142 193 L 149 187.5 L 162 169 Q 165.8 168 167 170.5 L 168 186.5 L 170 194.5 L 174.5 201 Q 180.7 201.6 183 199 L 183 197 Q 185.7 198.1 185 195.5 L 199 174.5 L 212 119.5 Q 210.3 116.3 203.5 118 L 199.5 118 L 195.5 119 L 193.5 119 L 156.5 119 L 156 116.5 Q 153.8 115.3 156.5 114 L 158.5 113 L 212.5 113 L 214 111.5 L 221 85.5 L 221 81.5 L 224.5 76 L 228 77.5 L 228 81.5 L 222 100.5 L 220 112 L 222.5 113 L 223.5 112 L 263.5 112 L 267.5 111 L 268.5 112 L 278.5 112 L 281 111 L 288 84.5 L 297 65.5 L 301.5 61 L 303.5 60 Z M 302 71 L 299 74 L 289 100 L 290 103 L 296 91 L 297 85 L 302 74 L 302 71 Z M 426 219 L 407 246 L 394 271 L 388 290 L 385 306 L 385 314 L 384 315 L 386 330 L 390 333 L 392 332 L 395 330 L 403 317 L 404 311 L 408 304 L 414 286 L 415 278 L 417 274 L 417 270 L 421 259 L 423 246 L 425 241 L 425 234 L 428 223 Q 429 218 426 219 Z " /><path fill="rgb(229,144,159)" stroke="rgb(229,144,159)" stroke-width="1" opacity="0.40784313725490196" d="M 487.5 32 L 489.5 32 L 495.5 37 L 498.5 37 L 514 48 L 514 50 L 516 50 L 516 52 Q 518.7 50.9 518 53.5 L 532.5 72 L 540.5 70 L 547.5 66 L 565.5 61 L 577.5 61 L 585.5 68 L 587.5 68 L 589.5 67 L 591 70 L 594 71.5 L 598 76.5 L 598 84 L 602 84 L 602 89 L 603.5 89 L 609 93 L 611 97.5 Q 608.3 98.6 609 102 L 613 102 L 613 109.5 L 614.5 111 L 622 112.5 L 615.5 113 L 613 112 Q 611.4 109.9 612 104.5 L 610.5 103 L 606.5 108 Q 603.5 108.9 605 104.5 L 609 96.5 L 605.5 92 L 601 88.5 L 599.5 85 L 597 84.5 L 597 77.5 L 591.5 71 Q 588.9 71.7 590 69 L 587.5 69 L 585.5 69 Q 583.3 69.8 584 67.5 Q 580.1 59.9 566.5 62 L 551.5 66 L 532.5 74 Q 522.2 57.3 507.5 45 L 488.5 33 L 472.5 38 L 459.5 40 L 448 44.5 L 445.5 49 L 439.5 49 L 435.5 52 Q 428.8 52.3 425 55.5 L 421.5 61 L 412.5 63 L 393 73.5 L 392.5 78 L 392 72.5 L 402.5 68 L 411.5 62 L 418.5 61 L 422 58.5 L 424 54 L 438 50 L 438.5 48 L 446 48 L 446 45.5 L 448.5 42 L 466.5 37 L 472.5 37 L 475.5 35 L 487.5 32 Z M 609 102 L 607 105 L 609 104 L 609 102 Z " /><path fill="rgb(229,144,159)" stroke="rgb(229,144,159)" stroke-width="1" opacity="0.40784313725490196" d="M 300.5 60 L 298.5 63 L 300.5 60 Z " /><path fill="rgb(229,144,159)" stroke="rgb(229,144,159)" stroke-width="1" opacity="0.40784313725490196" d="M 367.5 70 L 372 73.5 L 373.5 76 L 380.5 80 L 386.5 76 L 391 77.5 L 385.5 78 L 379.5 81 L 367.5 72 L 365 78 L 360 79.5 Q 364.7 85.3 366 94.5 L 363.5 93 L 358 92 L 358 95.5 L 363.5 101 L 367.5 96 Q 371.5 95.5 372 98.5 L 373 102.5 L 379.5 110 L 388.5 114 L 417.5 114 L 418.5 113 L 450.5 113 L 461.5 109 L 465.5 109 L 482.5 119 L 497.5 124 L 504.5 124 L 506 125.5 L 504.5 125 L 496.5 125 L 489.5 123 L 479.5 119 L 472.5 114 L 469.5 114 L 465.5 110 L 462.5 110 L 452.5 114 L 419.5 114 L 418.5 115 L 407.5 115 L 406.5 116 L 391.5 116 L 383.5 114 L 377 110 L 377 108 Q 374.3 109.1 375 106.5 Q 370.4 103.4 370 97 L 366 99.5 L 365 103 L 357 96.5 Q 354.3 88.3 362.5 91 L 364 91.5 L 359 78 Q 363.7 79 365 75.5 L 367.5 70 Z " /><path fill="rgb(229,144,159)" stroke="rgb(229,144,159)" stroke-width="1" opacity="0.40784313725490196" d="M 299.5 76 L 300 78 L 298 77.5 L 299.5 76 Z " /><path fill="rgb(229,144,159)" stroke="rgb(229,144,159)" stroke-width="1" opacity="0.40784313725490196" d="M 221.5 78 L 222 79.5 L 220 80.5 L 221.5 78 Z " /><path fill="rgb(229,144,159)" stroke="rgb(229,144,159)" stroke-width="1" opacity="0.40784313725490196" d="M 306.5 80 L 307 81.5 L 305.5 84 L 305 82.5 L 306.5 80 Z " /><path fill="rgb(229,144,159)" stroke="rgb(229,144,159)" stroke-width="1" opacity="0.40784313725490196" d="M 296 81 Q 299 80 298 83 Q 295 84 296 81 Z " /><path fill="rgb(229,144,159)" stroke="rgb(229,144,159)" stroke-width="1" opacity="0.40784313725490196" d="M 295 84 L 297 84.5 L 295.5 89 Q 292.8 87.8 295 86.5 L 295 84 Z " /><path fill="rgb(229,144,159)" stroke="rgb(229,144,159)" stroke-width="1" opacity="0.40784313725490196" d="M 304.5 85 L 305 86.5 L 303.5 89 L 303 87.5 L 304.5 85 Z " /><path fill="rgb(229,144,159)" stroke="rgb(229,144,159)" stroke-width="1" opacity="0.40784313725490196" d="M 302.5 90 L 303 91.5 L 301 92.5 L 302.5 90 Z " /><path fill="rgb(229,144,159)" stroke="rgb(229,144,159)" stroke-width="1" opacity="0.40784313725490196" d="M 300.5 94 L 301 95.5 L 299 96.5 L 300.5 94 Z " /><path fill="rgb(229,144,159)" stroke="rgb(229,144,159)" stroke-width="1" opacity="0.40784313725490196" d="M 291 95 L 293 95.5 L 292 98 L 290 97.5 L 291 95 Z " /><path fill="rgb(229,144,159)" stroke="rgb(229,144,159)" stroke-width="1" opacity="0.40784313725490196" d="M 223.5 98 L 224 100.5 L 223 100.5 L 223.5 98 Z " /><path fill="rgb(229,144,159)" stroke="rgb(229,144,159)" stroke-width="1" opacity="0.40784313725490196" d="M 281.5 104 L 282 105.5 L 280 106.5 L 281.5 104 Z " /><path fill="rgb(229,144,159)" stroke="rgb(229,144,159)" stroke-width="1" opacity="0.40784313725490196" d="M 295.5 106 L 295 107.5 L 294.5 109 L 294 107.5 L 295.5 106 Z " /><path fill="rgb(229,144,159)" stroke="rgb(229,144,159)" stroke-width="1" opacity="0.40784313725490196" d="M 222.5 111 L 235 111.5 L 222.5 112 L 222.5 111 Z " /><path fill="rgb(229,144,159)" stroke="rgb(229,144,159)" stroke-width="1" opacity="0.40784313725490196" d="M 315.5 111 L 318 111.5 L 315.5 112 L 315.5 111 Z " /><path fill="rgb(229,144,159)" stroke="rgb(229,144,159)" stroke-width="1" opacity="0.40784313725490196" d="M 207.5 112 L 211 112.5 L 207.5 113 L 207.5 112 Z " /><path fill="rgb(229,144,159)" stroke="rgb(229,144,159)" stroke-width="1" opacity="0.40784313725490196" d="M 623.5 113 Q 626.8 111.9 626 114.5 L 628 116.5 L 628 127.5 L 630 133 Q 633 132 632 135 L 635 135 L 635 136.5 L 637 140.5 L 635 146 L 641 150.5 L 640 158.5 L 645 170.5 L 647.5 173 L 656.5 172 L 658 176 L 651 177.5 L 654 179 L 654 182 Q 651 181 652 184 Q 656.5 182.3 655 187.5 L 655 189.5 Q 655.8 192.1 652.5 191 L 651.5 192 L 639.5 192 Q 636.2 189.3 629.5 190 L 627.5 188 L 620.5 186 L 607.5 179 L 586 164 L 586 162 L 584 162 Q 585.1 159.3 582.5 160 L 575 153.5 L 576 149.5 L 564.5 149 L 561 147 Q 562.1 144.3 559.5 145 L 555.5 144 L 550.5 145 L 543 141.5 L 542.5 140 L 533.5 140 L 521 134 L 514.5 126 L 507 125.5 L 515.5 125 L 523.5 134 L 532.5 138 L 542.5 139 L 547.5 143 L 559.5 143 L 562 144 Q 560.9 146.7 563.5 146 L 567.5 148 Q 569 145.5 574.5 147 L 578 148 L 576 152.5 L 577 155 L 587 161 Q 585.9 163.7 588.5 163 Q 603.7 176.8 623.5 186 L 640.5 191 L 650.5 191 L 654 190 L 654 185 L 652.5 185 L 650 183.5 L 652 180.5 L 645 178.5 L 646.5 177 L 657 174.5 L 654.5 173 Q 652.8 175.7 646.5 174 L 640 162.5 L 639 154.5 L 640 152.5 L 634 145.5 L 634 143.5 Q 636.3 142.2 635 137.5 L 629 132.5 Q 625.3 128.2 627 118.5 L 624.5 114 L 623.5 113 Z " /><path fill="rgb(229,144,159)" stroke="rgb(229,144,159)" stroke-width="1" opacity="0.40784313725490196" d="M 264.5 117 L 277 117.5 L 264.5 118 L 264.5 117 Z " /><path fill="rgb(229,144,159)" stroke="rgb(229,144,159)" stroke-width="1" opacity="0.40784313725490196" d="M 290.5 117 L 303 117.5 L 290.5 118 L 288.5 120 L 290.5 117 Z " /><path fill="rgb(229,144,159)" stroke="rgb(229,144,159)" stroke-width="1" opacity="0.40784313725490196" d="M 220.5 118 L 223 118.5 L 220.5 119 L 220.5 118 Z " /><path fill="rgb(229,144,159)" stroke="rgb(229,144,159)" stroke-width="1" opacity="0.40784313725490196" d="M 372.5 118 Q 379 125 394.5 123 L 402.5 120 L 418.5 119 L 442 124 Q 442.6 128.6 439 130.5 L 440.5 131 L 447.5 126 L 472.5 137 L 490 149 L 492 152.5 L 492 158.5 L 490 162.5 Q 490.6 167.9 489 170 Q 494.4 169.4 497 164.5 L 498 160 L 500.5 160 L 515 170.5 Q 515 176.5 512 179.5 L 512 183.5 L 513 183.5 L 521 163 L 556.5 163 L 575.5 167 L 596.5 178 L 602 183.5 L 604.5 188 L 614.5 193 L 619 193 L 621.5 199 L 626.5 200 L 630 203.5 L 630.5 207 Q 632.7 201.8 635 205.5 Q 633.8 211.8 637.5 213 L 643 216.5 L 643 218.5 L 638.5 223 Q 632.4 221.8 633 224.5 Q 635.8 225.2 635 229.5 L 628.5 233 L 621.5 233 Q 618.8 231.7 621 230.5 Q 622.5 224.5 619.5 223 Q 616.2 221.9 617 224.5 Q 615.3 227.8 610.5 228 L 609 227.5 L 606.5 231 L 596.5 231 L 596 233.5 L 571.5 248 L 566.5 245 L 548.5 253 L 528.5 253 L 506 244.5 L 508.5 244 L 530.5 252 L 546.5 252 Q 557.7 249.7 565.5 244 L 568.5 244 L 572.5 246 L 594 233.5 L 595 230 L 599.5 229 L 604.5 230 L 608 227.5 Q 607.2 224.9 610.5 226 L 612.5 227 L 617.5 222 L 620.5 222 L 622 223.5 L 622 232 Q 629.5 231.9 634 229 L 630 222.5 Q 631.3 219.8 632.5 222 Q 638.5 223.5 640 220.5 L 642 217.5 L 634 211.5 L 632.5 207 L 629 208 Q 630 202.4 625.5 201 Q 620.4 201.6 619 198.5 L 618 194 L 613.5 194 L 602 187.5 Q 600.6 181.4 595.5 179 L 574.5 168 L 562.5 165 L 536.5 165 L 535.5 164 L 533.5 164 L 531.5 165 Q 529.8 162.2 523.5 164 L 521 165 L 514 184.5 L 509.5 192 Q 506.9 192.8 508 189.5 L 509.5 187 L 510.5 189 L 511 186.5 L 510 183.5 L 514 171.5 L 499.5 161 Q 498.6 166.6 494.5 169 L 488.5 173 L 488 167.5 L 491 153.5 L 489 150 L 469.5 137 L 452.5 129 L 445.5 128 L 438.5 133 L 438 130.5 L 441 125.5 L 424.5 121 L 410.5 120 L 396.5 124 L 381.5 124 L 372.5 120 L 368.5 125 L 364 126 Q 364.1 137.8 369 145 L 374.5 144 L 377.5 150 L 381 149 L 381 157.5 L 394 181.5 L 392 180.5 L 386 171.5 L 382 160.5 L 379 156.5 L 380 151 Q 372.5 153.8 375 145.5 L 373.5 146 L 369 147 L 364 136.5 L 363 125.5 Q 364.4 122.8 369 124 L 372.5 118 Z " /><path fill="rgb(229,144,159)" stroke="rgb(229,144,159)" stroke-width="1" opacity="0.40784313725490196" d="M 277.5 119 L 278 120.5 L 276.5 123 L 276 121.5 L 277.5 119 Z " /><path fill="rgb(229,144,159)" stroke="rgb(229,144,159)" stroke-width="1" opacity="0.40784313725490196" d="M 286.5 123 L 286 124.5 L 285.5 126 L 285 124.5 L 286.5 123 Z " /><path fill="rgb(229,144,159)" stroke="rgb(229,144,159)" stroke-width="1" opacity="0.40784313725490196" d="M 209.5 124 L 210 127.5 L 209 127.5 L 209.5 124 Z " /><path fill="rgb(229,144,159)" stroke="rgb(229,144,159)" stroke-width="1" opacity="0.40784313725490196" d="M 210.5 153 L 211 156.5 L 210 156.5 L 210.5 153 Z " /><path fill="rgb(229,144,159)" stroke="rgb(229,144,159)" stroke-width="1" opacity="0.40784313725490196" d="M 158.5 154 L 162 154.5 L 158.5 155 L 158.5 154 Z " /><path fill="rgb(229,144,159)" stroke="rgb(229,144,159)" stroke-width="1" opacity="0.40784313725490196" d="M 203.5 155 L 202.5 157 L 203.5 155 Z " /><path fill="rgb(229,144,159)" stroke="rgb(229,144,159)" stroke-width="1" opacity="0.40784313725490196" d="M 167.5 156 L 168.5 158 L 167.5 156 Z " /><path fill="rgb(229,144,159)" stroke="rgb(229,144,159)" stroke-width="1" opacity="0.40784313725490196" d="M 268.5 158 L 268 159.5 L 267.5 161 L 267 159.5 L 268.5 158 Z " /><path fill="rgb(229,144,159)" stroke="rgb(229,144,159)" stroke-width="1" opacity="0.40784313725490196" d="M 148.5 159 L 147.5 161 L 148.5 159 Z " /><path fill="rgb(229,144,159)" stroke="rgb(229,144,159)" stroke-width="1" opacity="0.40784313725490196" d="M 170.5 159 L 171.5 161 L 170.5 159 Z " /><path fill="rgb(229,144,159)" stroke="rgb(229,144,159)" stroke-width="1" opacity="0.40784313725490196" d="M 201.5 159 L 202 161.5 L 201 161.5 L 201.5 159 Z " /><path fill="rgb(229,144,159)" stroke="rgb(229,144,159)" stroke-width="1" opacity="0.40784313725490196" d="M 158.5 161 L 161 161.5 L 158.5 162 L 158.5 161 Z " /><path fill="rgb(229,144,159)" stroke="rgb(229,144,159)" stroke-width="1" opacity="0.40784313725490196" d="M 226.5 161 L 228 161.5 L 225.5 163 L 226.5 161 Z " /><path fill="rgb(229,144,159)" stroke="rgb(229,144,159)" stroke-width="1" opacity="0.40784313725490196" d="M 66.5 163 L 67 164.5 L 65.5 167 L 65 165.5 L 66.5 163 Z " /><path fill="rgb(229,144,159)" stroke="rgb(229,144,159)" stroke-width="1" opacity="0.40784313725490196" d="M 208.5 163 L 209 165.5 L 208 165.5 L 208.5 163 Z " /><path fill="rgb(229,144,159)" stroke="rgb(229,144,159)" stroke-width="1" opacity="0.40784313725490196" d="M 378.5 163 L 379.5 165 L 378.5 163 Z " /><path fill="rgb(229,144,159)" stroke="rgb(229,144,159)" stroke-width="1" opacity="0.40784313725490196" d="M 200.5 164 L 201 166.5 L 200 166.5 L 200.5 164 Z " /><path fill="rgb(229,144,159)" stroke="rgb(229,144,159)" stroke-width="1" opacity="0.40784313725490196" d="M 349.5 164 L 352 164.5 L 346.5 168 L 349.5 164 Z " /><path fill="rgb(229,144,159)" stroke="rgb(229,144,159)" stroke-width="1" opacity="0.40784313725490196" d="M 104.5 165 L 105 166.5 L 102 168.5 L 104.5 165 Z " /><path fill="rgb(229,144,159)" stroke="rgb(229,144,159)" stroke-width="1" opacity="0.40784313725490196" d="M 339.5 165 L 340 167.5 L 339 167.5 L 339.5 165 Z " /><path fill="rgb(229,144,159)" stroke="rgb(229,144,159)" stroke-width="1" opacity="0.40784313725490196" d="M 167.5 166 L 170 166.5 L 167.5 167 L 167.5 166 Z " /><path fill="rgb(229,144,159)" stroke="rgb(229,144,159)" stroke-width="1" opacity="0.40784313725490196" d="M 331.5 166 L 330.5 168 L 331.5 166 Z " /><path fill="rgb(229,144,159)" stroke="rgb(229,144,159)" stroke-width="1" opacity="0.40784313725490196" d="M 152.5 167 L 150.5 170 L 152.5 167 Z " /><path fill="rgb(229,144,159)" stroke="rgb(229,144,159)" stroke-width="1" opacity="0.40784313725490196" d="M 380.5 167 L 381 172.5 L 380 172.5 L 380.5 167 Z " /><path fill="rgb(229,144,159)" stroke="rgb(229,144,159)" stroke-width="1" opacity="0.40784313725490196" d="M 355.5 168 L 356 177.5 L 355 177.5 L 355.5 168 Z " /><path fill="rgb(229,144,159)" stroke="rgb(229,144,159)" stroke-width="1" opacity="0.40784313725490196" d="M 167.5 169 L 168 171.5 L 167 171.5 L 167.5 169 Z " /><path fill="rgb(229,144,159)" stroke="rgb(229,144,159)" stroke-width="1" opacity="0.40784313725490196" d="M 141.5 170 L 137.5 175 L 141.5 170 Z " /><path fill="rgb(229,144,159)" stroke="rgb(229,144,159)" stroke-width="1" opacity="0.40784313725490196" d="M 149.5 171 L 148.5 173 L 149.5 171 Z " /><path fill="rgb(229,144,159)" stroke="rgb(229,144,159)" stroke-width="1" opacity="0.40784313725490196" d="M 224.5 173 L 225 174.5 L 223 175.5 L 224.5 173 Z " /><path fill="rgb(229,144,159)" stroke="rgb(229,144,159)" stroke-width="1" opacity="0.40784313725490196" d="M 259.5 174 L 258.5 176 L 259.5 174 Z " /><path fill="rgb(229,144,159)" stroke="rgb(229,144,159)" stroke-width="1" opacity="0.40784313725490196" d="M 336.5 174 L 337 175.5 L 335.5 178 L 335 176.5 L 336.5 174 Z " /><path fill="rgb(229,144,159)" stroke="rgb(229,144,159)" stroke-width="1" opacity="0.40784313725490196" d="M 107.5 176 L 108 178.5 L 105 178.5 L 107.5 176 Z " /><path fill="rgb(229,144,159)" stroke="rgb(229,144,159)" stroke-width="1" opacity="0.40784313725490196" d="M 135.5 176 L 131.5 181 L 135.5 176 Z " /><path fill="rgb(229,144,159)" stroke="rgb(229,144,159)" stroke-width="1" opacity="0.40784313725490196" d="M 373.5 176 L 374 179.5 L 373 179.5 L 373.5 176 Z " /><path fill="rgb(229,144,159)" stroke="rgb(229,144,159)" stroke-width="1" opacity="0.40784313725490196" d="M 73.5 177 L 72.5 179 L 73.5 177 Z " /><path fill="rgb(229,144,159)" stroke="rgb(229,144,159)" stroke-width="1" opacity="0.40784313725490196" d="M 235.5 177 L 234.5 179 L 233 178.5 L 235.5 177 Z " /><path fill="rgb(229,144,159)" stroke="rgb(229,144,159)" stroke-width="1" opacity="0.40784313725490196" d="M 257.5 177 L 255.5 180 L 257.5 177 Z " /><path fill="rgb(229,144,159)" stroke="rgb(229,144,159)" stroke-width="1" opacity="0.40784313725490196" d="M 195.5 178 L 194.5 180 L 195.5 178 Z " /><path fill="rgb(229,144,159)" stroke="rgb(229,144,159)" stroke-width="1" opacity="0.40784313725490196" d="M 291.5 178 L 293.5 181 L 291.5 178 Z " /><path fill="rgb(229,144,159)" stroke="rgb(229,144,159)" stroke-width="1" opacity="0.40784313725490196" d="M 348.5 178 L 346.5 181 L 348.5 178 Z " /><path fill="rgb(229,144,159)" stroke="rgb(229,144,159)" stroke-width="1" opacity="0.40784313725490196" d="M 153.5 180 L 151.5 183 L 153.5 180 Z " /><path fill="rgb(229,144,159)" stroke="rgb(229,144,159)" stroke-width="1" opacity="0.40784313725490196" d="M 213.5 180 L 214 182.5 L 213 182.5 L 213.5 180 Z " /><path fill="rgb(229,144,159)" stroke="rgb(229,144,159)" stroke-width="1" opacity="0.40784313725490196" d="M 145.5 181 L 144.5 183 L 145.5 181 Z " /><path fill="rgb(229,144,159)" stroke="rgb(229,144,159)" stroke-width="1" opacity="0.40784313725490196" d="M 334.5 181 L 334 182.5 L 333.5 184 L 333 182.5 L 334.5 181 Z " /><path fill="rgb(229,144,159)" stroke="rgb(229,144,159)" stroke-width="1" opacity="0.40784313725490196" d="M 128.5 182 L 127.5 184 L 128.5 182 Z " /><path fill="rgb(229,144,159)" stroke="rgb(229,144,159)" stroke-width="1" opacity="0.40784313725490196" d="M 161.5 182 L 162 184.5 L 160 183.5 L 161.5 182 Z " /><path fill="rgb(229,144,159)" stroke="rgb(229,144,159)" stroke-width="1" opacity="0.40784313725490196" d="M 193.5 182 L 192.5 184 L 193.5 182 Z " /><path fill="rgb(229,144,159)" stroke="rgb(229,144,159)" stroke-width="1" opacity="0.40784313725490196" d="M 382.5 182 L 384 185.5 L 382 184.5 L 382.5 182 Z " /><path fill="rgb(229,144,159)" stroke="rgb(229,144,159)" stroke-width="1" opacity="0.40784313725490196" d="M 393.5 183 L 392.5 185 L 393.5 183 Z " /><path fill="rgb(229,144,159)" stroke="rgb(229,144,159)" stroke-width="1" opacity="0.40784313725490196" d="M 117.5 185 L 118.5 187 L 117.5 185 Z " /><path fill="rgb(229,144,159)" stroke="rgb(229,144,159)" stroke-width="1" opacity="0.40784313725490196" d="M 191.5 185 L 190.5 187 L 191.5 185 Z " /><path fill="rgb(229,144,159)" stroke="rgb(229,144,159)" stroke-width="1" opacity="0.40784313725490196" d="M 286.5 185 L 288 185.5 L 285.5 187 L 286.5 185 Z " /><path fill="rgb(229,144,159)" stroke="rgb(229,144,159)" stroke-width="1" opacity="0.40784313725490196" d="M 318.5 185 L 317.5 187 L 318.5 185 Z " /><path fill="rgb(229,144,159)" stroke="rgb(229,144,159)" stroke-width="1" opacity="0.40784313725490196" d="M 66.5 186 L 69 186.5 L 66 188 L 66.5 186 Z " /><path fill="rgb(229,144,159)" stroke="rgb(229,144,159)" stroke-width="1" opacity="0.40784313725490196" d="M 133.5 188 L 132.5 190 L 133.5 188 Z " /><path fill="rgb(229,144,159)" stroke="rgb(229,144,159)" stroke-width="1" opacity="0.40784313725490196" d="M 66.5 189 L 65.5 191 L 66.5 189 Z " /><path fill="rgb(229,144,159)" stroke="rgb(229,144,159)" stroke-width="1" opacity="0.40784313725490196" d="M 135.5 189 L 136 195.5 L 135 195.5 L 135.5 189 Z " /><path fill="rgb(229,144,159)" stroke="rgb(229,144,159)" stroke-width="1" opacity="0.40784313725490196" d="M 273.5 189 L 272.5 191 L 273.5 189 Z " /><path fill="rgb(229,144,159)" stroke="rgb(229,144,159)" stroke-width="1" opacity="0.40784313725490196" d="M 315.5 189 L 313.5 192 L 315.5 189 Z " /><path fill="rgb(229,144,159)" stroke="rgb(229,144,159)" stroke-width="1" opacity="0.40784313725490196" d="M 398.5 189 L 400.5 189 L 405 193.5 L 409.5 199 L 424 210.5 L 422.5 211 L 414 205 L 414 203 L 412 203 Q 413.1 200.3 410.5 201 L 401 191.5 L 401 190 Q 397.7 190.8 398.5 189 Z " /><path fill="rgb(229,144,159)" stroke="rgb(229,144,159)" stroke-width="1" opacity="0.40784313725490196" d="M 82.5 190 L 84 192.5 L 83 192.5 L 82.5 190 Z " /><path fill="rgb(229,144,159)" stroke="rgb(229,144,159)" stroke-width="1" opacity="0.40784313725490196" d="M 129.5 190 L 128.5 192 L 129.5 190 Z " /><path fill="rgb(229,144,159)" stroke="rgb(229,144,159)" stroke-width="1" opacity="0.40784313725490196" d="M 323.5 190 Q 325.8 189.3 325 191.5 L 323.5 194 L 322.5 192 L 324 191.5 L 323.5 190 Z " /><path fill="rgb(229,144,159)" stroke="rgb(229,144,159)" stroke-width="1" opacity="0.40784313725490196" d="M 395.5 190 L 394.5 192 L 391.5 193 L 391.5 192 L 395.5 190 Z " /><path fill="rgb(229,144,159)" stroke="rgb(229,144,159)" stroke-width="1" opacity="0.40784313725490196" d="M 144.5 191 L 143.5 193 L 144.5 191 Z " /><path fill="rgb(229,144,159)" stroke="rgb(229,144,159)" stroke-width="1" opacity="0.40784313725490196" d="M 153.5 192 L 145.5 201 L 144 200.5 L 153.5 192 Z " /><path fill="rgb(229,144,159)" stroke="rgb(229,144,159)" stroke-width="1" opacity="0.40784313725490196" d="M 246.5 192 L 244.5 195 L 246.5 192 Z " /><path fill="rgb(229,144,159)" stroke="rgb(229,144,159)" stroke-width="1" opacity="0.40784313725490196" d="M 121.5 193 L 124 193.5 L 121.5 194 L 121.5 193 Z " /><path fill="rgb(229,144,159)" stroke="rgb(229,144,159)" stroke-width="1" opacity="0.40784313725490196" d="M 279.5 193 L 278.5 195 L 279.5 193 Z " /><path fill="rgb(229,144,159)" stroke="rgb(229,144,159)" stroke-width="1" opacity="0.40784313725490196" d="M 383.5 193 L 386 193.5 L 383.5 194 L 383.5 193 Z " /><path fill="rgb(229,144,159)" stroke="rgb(229,144,159)" stroke-width="1" opacity="0.40784313725490196" d="M 387.5 193 L 390 193.5 L 387.5 194 L 387.5 193 Z " /><path fill="rgb(229,144,159)" stroke="rgb(229,144,159)" stroke-width="1" opacity="0.40784313725490196" d="M 57.5 194 L 58 195.5 L 56.5 198 L 56 196.5 L 57.5 194 Z " /><path fill="rgb(229,144,159)" stroke="rgb(229,144,159)" stroke-width="1" opacity="0.40784313725490196" d="M 289.5 194 L 291 198.5 L 290 198.5 L 289.5 194 Z " /><path fill="rgb(229,144,159)" stroke="rgb(229,144,159)" stroke-width="1" opacity="0.40784313725490196" d="M 311.5 194 L 310.5 196 L 311.5 194 Z " /><path fill="rgb(229,144,159)" stroke="rgb(229,144,159)" stroke-width="1" opacity="0.40784313725490196" d="M 338.5 194 L 338 195.5 L 336.5 198 L 337 196.5 L 338.5 194 Z " /><path fill="rgb(229,144,159)" stroke="rgb(229,144,159)" stroke-width="1" opacity="0.40784313725490196" d="M 364.5 194 L 363.5 196 L 364.5 194 Z " /><path fill="rgb(229,144,159)" stroke="rgb(229,144,159)" stroke-width="1" opacity="0.40784313725490196" d="M 193.5 195 L 192.5 197 L 193.5 195 Z " /><path fill="rgb(229,144,159)" stroke="rgb(229,144,159)" stroke-width="1" opacity="0.40784313725490196" d="M 319.5 196 L 318.5 198 L 319.5 196 Z " /><path fill="rgb(229,144,159)" stroke="rgb(229,144,159)" stroke-width="1" opacity="0.40784313725490196" d="M 266.5 197 L 267.5 199 L 266.5 197 Z " /><path fill="rgb(229,144,159)" stroke="rgb(229,144,159)" stroke-width="1" opacity="0.40784313725490196" d="M 308.5 197 L 305.5 201 L 308.5 197 Z " /><path fill="rgb(229,144,159)" stroke="rgb(229,144,159)" stroke-width="1" opacity="0.40784313725490196" d="M 362.5 197 L 359.5 201 L 354 200.5 Q 360.8 201.3 362.5 197 Z " /><path fill="rgb(229,144,159)" stroke="rgb(229,144,159)" stroke-width="1" opacity="0.40784313725490196" d="M 85.5 198 L 86.5 200 L 85.5 198 Z " /><path fill="rgb(229,144,159)" stroke="rgb(229,144,159)" stroke-width="1" opacity="0.40784313725490196" d="M 191.5 198 L 189.5 201 L 191.5 198 Z " /><path fill="rgb(229,144,159)" stroke="rgb(229,144,159)" stroke-width="1" opacity="0.40784313725490196" d="M 241.5 198 L 236.5 204 L 241.5 198 Z " /><path fill="rgb(229,144,159)" stroke="rgb(229,144,159)" stroke-width="1" opacity="0.40784313725490196" d="M 69.5 199 L 68.5 201 L 69.5 199 Z " /><path fill="rgb(229,144,159)" stroke="rgb(229,144,159)" stroke-width="1" opacity="0.40784313725490196" d="M 317.5 199 L 316.5 201 L 317.5 199 Z " /><path fill="rgb(229,144,159)" stroke="rgb(229,144,159)" stroke-width="1" opacity="0.40784313725490196" d="M 88.5 200 L 93 200.5 L 88.5 201 L 88.5 200 Z " /><path fill="rgb(229,144,159)" stroke="rgb(229,144,159)" stroke-width="1" opacity="0.40784313725490196" d="M 175.5 200 L 178 200.5 L 175.5 201 L 175.5 200 Z " /><path fill="rgb(229,144,159)" stroke="rgb(229,144,159)" stroke-width="1" opacity="0.40784313725490196" d="M 211.5 200 L 213 203.5 L 211 202.5 L 211.5 200 Z " /><path fill="rgb(229,144,159)" stroke="rgb(229,144,159)" stroke-width="1" opacity="0.40784313725490196" d="M 321.5 200 L 322 202.5 L 321 202.5 L 321.5 200 Z " /><path fill="rgb(229,144,159)" stroke="rgb(229,144,159)" stroke-width="1" opacity="0.40784313725490196" d="M 199.5 203 L 200 208.5 L 199 208.5 L 199.5 203 Z " /><path fill="rgb(229,144,159)" stroke="rgb(229,144,159)" stroke-width="1" opacity="0.40784313725490196" d="M 311.5 204 L 308.5 208 L 311.5 204 Z " /><path fill="rgb(229,144,159)" stroke="rgb(229,144,159)" stroke-width="1" opacity="0.40784313725490196" d="M 332.5 204 L 331.5 206 L 332.5 204 Z " /><path fill="rgb(229,144,159)" stroke="rgb(229,144,159)" stroke-width="1" opacity="0.40784313725490196" d="M 65.5 205 L 66 206.5 L 64 207.5 L 65.5 205 Z " /><path fill="rgb(229,144,159)" stroke="rgb(229,144,159)" stroke-width="1" opacity="0.40784313725490196" d="M 183.5 205 L 182.5 207 L 183.5 205 Z " /><path fill="rgb(229,144,159)" stroke="rgb(229,144,159)" stroke-width="1" opacity="0.40784313725490196" d="M 54.5 207 L 55 209.5 L 54 209.5 L 54.5 207 Z " /><path fill="rgb(229,144,159)" stroke="rgb(229,144,159)" stroke-width="1" opacity="0.40784313725490196" d="M 179.5 207 L 181 207.5 Q 179.3 209.8 174.5 209 L 174.5 208 L 179.5 207 Z " /><path fill="rgb(229,144,159)" stroke="rgb(229,144,159)" stroke-width="1" opacity="0.40784313725490196" d="M 191.5 207 L 192 210.5 L 190 211.5 L 191.5 207 Z " /><path fill="rgb(229,144,159)" stroke="rgb(229,144,159)" stroke-width="1" opacity="0.40784313725490196" d="M 221.5 207 L 224 208.5 L 222.5 209 L 221.5 207 Z " /><path fill="rgb(229,144,159)" stroke="rgb(229,144,159)" stroke-width="1" opacity="0.40784313725490196" d="M 256.5 207 L 257 209.5 L 256 209.5 L 256.5 207 Z " /><path fill="rgb(229,144,159)" stroke="rgb(229,144,159)" stroke-width="1" opacity="0.40784313725490196" d="M 242.5 208 L 241.5 210 L 242.5 208 Z " /><path fill="rgb(229,144,159)" stroke="rgb(229,144,159)" stroke-width="1" opacity="0.40784313725490196" d="M 214.5 210 L 215.5 212 L 214.5 210 Z " /><path fill="rgb(229,144,159)" stroke="rgb(229,144,159)" stroke-width="1" opacity="0.40784313725490196" d="M 328.5 211 L 326.5 214 Q 322.8 214.8 322 212.5 L 323.5 213 Q 327.8 213.8 328.5 211 Z " /><path fill="rgb(229,144,159)" stroke="rgb(229,144,159)" stroke-width="1" opacity="0.40784313725490196" d="M 236.5 212 L 235.5 214 L 236.5 212 Z " /><path fill="rgb(229,144,159)" stroke="rgb(229,144,159)" stroke-width="1" opacity="0.40784313725490196" d="M 197.5 215 L 198 217.5 L 197 217.5 L 197.5 215 Z " /><path fill="rgb(229,144,159)" stroke="rgb(229,144,159)" stroke-width="1" opacity="0.40784313725490196" d="M 220.5 215 L 223 215.5 L 220.5 216 L 220.5 215 Z " /><path fill="rgb(229,144,159)" stroke="rgb(229,144,159)" stroke-width="1" opacity="0.40784313725490196" d="M 229.5 215 L 232 215.5 L 229.5 216 L 229.5 215 Z " /><path fill="rgb(229,144,159)" stroke="rgb(229,144,159)" stroke-width="1" opacity="0.40784313725490196" d="M 419.5 217 L 417.5 220 L 419.5 217 Z " /><path fill="rgb(229,144,159)" stroke="rgb(229,144,159)" stroke-width="1" opacity="0.40784313725490196" d="M 435.5 217 L 441.5 221 L 459.5 228 L 470.5 232 L 477.5 233 L 505 243.5 L 500.5 244 L 488.5 238 L 458.5 229 L 456.5 227 Q 444.6 224.9 436.5 219 L 435 219.5 L 435.5 217 Z " /><path fill="rgb(229,144,159)" stroke="rgb(229,144,159)" stroke-width="1" opacity="0.40784313725490196" d="M 426.5 220 L 427 222.5 L 426.5 224 L 425 221.5 L 426.5 220 Z " /><path fill="rgb(229,144,159)" stroke="rgb(229,144,159)" stroke-width="1" opacity="0.40784313725490196" d="M 415.5 221 L 414.5 223 L 415.5 221 Z " /><path fill="rgb(229,144,159)" stroke="rgb(229,144,159)" stroke-width="1" opacity="0.40784313725490196" d="M 195.5 224 L 196 226.5 L 195 226.5 L 195.5 224 Z " /><path fill="rgb(229,144,159)" stroke="rgb(229,144,159)" stroke-width="1" opacity="0.40784313725490196" d="M 252.5 225 L 253 230.5 L 252 230.5 L 252.5 225 Z " /><path fill="rgb(229,144,159)" stroke="rgb(229,144,159)" stroke-width="1" opacity="0.40784313725490196" d="M 263.5 225 L 263 226.5 L 262.5 228 L 262 226.5 L 263.5 225 Z " /><path fill="rgb(229,144,159)" stroke="rgb(229,144,159)" stroke-width="1" opacity="0.40784313725490196" d="M 412.5 226 L 411.5 228 L 412.5 226 Z " /><path fill="rgb(229,144,159)" stroke="rgb(229,144,159)" stroke-width="1" opacity="0.40784313725490196" d="M 433.5 227 L 434 229.5 L 433 229.5 L 433.5 227 Z " /><path fill="rgb(229,144,159)" stroke="rgb(229,144,159)" stroke-width="1" opacity="0.40784313725490196" d="M 420.5 228 L 419.5 230 L 420.5 228 Z " /><path fill="rgb(229,144,159)" stroke="rgb(229,144,159)" stroke-width="1" opacity="0.40784313725490196" d="M 187.5 229 L 188 231.5 L 186.5 234 L 186 232.5 L 187.5 229 Z " /><path fill="rgb(229,144,159)" stroke="rgb(229,144,159)" stroke-width="1" opacity="0.40784313725490196" d="M 424.5 232 L 425 236.5 L 424 236.5 L 424.5 232 Z " /><path fill="rgb(229,144,159)" stroke="rgb(229,144,159)" stroke-width="1" opacity="0.40784313725490196" d="M 193.5 233 L 194 235.5 L 193 235.5 L 193.5 233 Z " /><path fill="rgb(229,144,159)" stroke="rgb(229,144,159)" stroke-width="1" opacity="0.40784313725490196" d="M 186.5 236 L 187 237.5 L 185.5 240 L 185 238.5 L 186.5 236 Z " /><path fill="rgb(229,144,159)" stroke="rgb(229,144,159)" stroke-width="1" opacity="0.40784313725490196" d="M 404.5 237 L 403.5 239 L 404.5 237 Z " /><path fill="rgb(229,144,159)" stroke="rgb(229,144,159)" stroke-width="1" opacity="0.40784313725490196" d="M 431.5 237 L 432 239.5 L 431 239.5 L 431.5 237 Z " /><path fill="rgb(229,144,159)" stroke="rgb(229,144,159)" stroke-width="1" opacity="0.40784313725490196" d="M 257.5 239 L 256.5 241 L 257.5 239 Z " /><path fill="rgb(229,144,159)" stroke="rgb(229,144,159)" stroke-width="1" opacity="0.40784313725490196" d="M 408.5 245 L 407.5 247 L 408.5 245 Z " /><path fill="rgb(229,144,159)" stroke="rgb(229,144,159)" stroke-width="1" opacity="0.40784313725490196" d="M 183.5 247 L 184 249.5 L 183 249.5 L 183.5 247 Z " /><path fill="rgb(229,144,159)" stroke="rgb(229,144,159)" stroke-width="1" opacity="0.40784313725490196" d="M 190.5 249 L 191 251.5 L 190 251.5 L 190.5 249 Z " /><path fill="rgb(229,144,159)" stroke="rgb(229,144,159)" stroke-width="1" opacity="0.40784313725490196" d="M 405.5 250 L 404.5 252 L 405.5 250 Z " /><path fill="rgb(229,144,159)" stroke="rgb(229,144,159)" stroke-width="1" opacity="0.40784313725490196" d="M 182.5 254 L 183 256.5 L 181.5 259 L 181 257.5 L 182.5 254 Z " /><path fill="rgb(229,144,159)" stroke="rgb(229,144,159)" stroke-width="1" opacity="0.40784313725490196" d="M 427.5 254 L 428 256.5 L 427 256.5 L 427.5 254 Z " /><path fill="rgb(229,144,159)" stroke="rgb(229,144,159)" stroke-width="1" opacity="0.40784313725490196" d="M 402.5 256 L 402 257.5 L 400.5 260 L 401 258.5 L 402.5 256 Z " /><path fill="rgb(229,144,159)" stroke="rgb(229,144,159)" stroke-width="1" opacity="0.40784313725490196" d="M 425.5 263 L 426 266.5 L 425 266.5 L 425.5 263 Z " /><path fill="rgb(229,144,159)" stroke="rgb(229,144,159)" stroke-width="1" opacity="0.40784313725490196" d="M 179.5 268 L 180 270.5 L 179 270.5 L 179.5 268 Z " /><path fill="rgb(229,144,159)" stroke="rgb(229,144,159)" stroke-width="1" opacity="0.40784313725490196" d="M 186.5 273 L 187 275.5 L 186 275.5 L 186.5 273 Z " /><path fill="rgb(229,144,159)" stroke="rgb(229,144,159)" stroke-width="1" opacity="0.40784313725490196" d="M 178.5 275 L 179 277.5 L 178 277.5 L 178.5 275 Z " /><path fill="rgb(229,144,159)" stroke="rgb(229,144,159)" stroke-width="1" opacity="0.40784313725490196" d="M 177.5 279 L 178 281.5 L 177 281.5 L 177.5 279 Z " /><path fill="rgb(229,144,159)" stroke="rgb(229,144,159)" stroke-width="1" opacity="0.40784313725490196" d="M 381.5 288 L 382 291.5 L 381 291.5 L 381.5 288 Z " /><path fill="rgb(229,144,159)" stroke="rgb(229,144,159)" stroke-width="1" opacity="0.40784313725490196" d="M 388.5 291 L 389 293.5 L 388 293.5 L 388.5 291 Z " /><path fill="rgb(229,144,159)" stroke="rgb(229,144,159)" stroke-width="1" opacity="0.40784313725490196" d="M 379.5 299 L 380 301.5 L 379 301.5 L 379.5 299 Z " /><path fill="rgb(229,144,159)" stroke="rgb(229,144,159)" stroke-width="1" opacity="0.40784313725490196" d="M 386.5 301 L 387 303.5 L 386 303.5 L 386.5 301 Z " /><path fill="rgb(229,144,159)" stroke="rgb(229,144,159)" stroke-width="1" opacity="0.40784313725490196" d="M 378.5 311 L 379 316.5 L 378 316.5 L 378.5 311 Z " /><path fill="rgb(229,144,159)" stroke="rgb(229,144,159)" stroke-width="1" opacity="0.40784313725490196" d="M 400.5 318 L 399.5 320 L 400.5 318 Z " /><path fill="rgb(229,144,159)" stroke="rgb(229,144,159)" stroke-width="1" opacity="0.40784313725490196" d="M 408.5 319 L 407.5 321 L 408.5 319 Z " /><path fill="rgb(229,144,159)" stroke="rgb(229,144,159)" stroke-width="1" opacity="0.40784313725490196" d="M 379.5 329 L 380.5 331 L 379.5 329 Z " /><path fill="rgb(229,144,159)" stroke="rgb(229,144,159)" stroke-width="1" opacity="0.40784313725490196" d="M 402.5 330 L 401.5 332 L 402.5 330 Z " /><path fill="rgb(229,144,159)" stroke="rgb(229,144,159)" stroke-width="1" opacity="0.40784313725490196" d="M 388.5 331 L 389.5 333 L 388.5 331 Z " /><path fill="rgb(229,144,159)" stroke="rgb(229,144,159)" stroke-width="1" opacity="0.40784313725490196" d="M 386.5 339 L 389 339.5 L 386.5 340 L 386.5 339 Z " /></svg>