<svg width="512" height="512" version="1.1" xmlns="http://www.w3.org/2000/svg" desc="Created with imagetracer.js version 1.2.6" ><path fill="rgb(0,0,0)" stroke="rgb(0,0,0)" stroke-width="1" opacity="0.7372549019607844" d="M 211.5 0 L 214 0.5 L 211.5 1 L 211.5 0 Z " /><path fill="rgb(0,0,0)" stroke="rgb(0,0,0)" stroke-width="1" opacity="0.7372549019607844" d="M 216.5 0 L 220 0.5 L 216.5 1 L 216.5 0 Z " /><path fill="rgb(0,0,0)" stroke="rgb(0,0,0)" stroke-width="1" opacity="0.7372549019607844" d="M 301.5 41 L 302.5 43 L 301.5 41 Z " /><path fill="rgb(0,0,0)" stroke="rgb(0,0,0)" stroke-width="1" opacity="0.7372549019607844" d="M 414.5 44 L 413.5 46 L 414.5 44 Z " /><path fill="rgb(0,0,0)" stroke="rgb(0,0,0)" stroke-width="1" opacity="0.7372549019607844" d="M 421.5 44 L 424.5 48 L 421.5 44 Z " /><path fill="rgb(0,0,0)" stroke="rgb(0,0,0)" stroke-width="1" opacity="0.7372549019607844" d="M 306.5 46 L 308.5 49 L 306.5 46 Z " /><path fill="rgb(0,0,0)" stroke="rgb(0,0,0)" stroke-width="1" opacity="0.7372549019607844" d="M 410.5 49 L 411 52.5 L 410 52.5 L 410.5 49 Z " /><path fill="rgb(0,0,0)" stroke="rgb(0,0,0)" stroke-width="1" opacity="0.7372549019607844" d="M 425.5 51 L 426 54.5 L 425 54.5 L 425.5 51 Z " /><path fill="rgb(0,0,0)" stroke="rgb(0,0,0)" stroke-width="1" opacity="0.7372549019607844" d="M 311.5 55 L 312 58.5 L 311 58.5 L 311.5 55 Z " /><path fill="rgb(0,0,0)" stroke="rgb(0,0,0)" stroke-width="1" opacity="0.7372549019607844" d="M 431.5 70 L 433.5 73 L 431.5 70 Z " /><path fill="rgb(0,0,0)" stroke="rgb(0,0,0)" stroke-width="1" opacity="0.7372549019607844" d="M 402.5 72 L 398.5 77 L 402.5 72 Z " /><path fill="rgb(0,0,0)" stroke="rgb(0,0,0)" stroke-width="1" opacity="0.7372549019607844" d="M 436.5 75 L 438.5 78 L 436.5 75 Z " /><path fill="rgb(0,0,0)" stroke="rgb(0,0,0)" stroke-width="1" opacity="0.7372549019607844" d="M 417.5 77 L 419 77.5 L 416.5 79 L 417.5 77 Z " /><path fill="rgb(0,0,0)" stroke="rgb(0,0,0)" stroke-width="1" opacity="0.7372549019607844" d="M 395.5 78 L 394.5 80 L 395.5 78 Z " /><path fill="rgb(0,0,0)" stroke="rgb(0,0,0)" stroke-width="1" opacity="0.7372549019607844" d="M 419.5 79 L 421.5 82 L 419.5 79 Z " /><path fill="rgb(0,0,0)" stroke="rgb(0,0,0)" stroke-width="1" opacity="0.7372549019607844" d="M 415.5 80 L 407.5 89 L 415.5 80 Z " /><path fill="rgb(0,0,0)" stroke="rgb(0,0,0)" stroke-width="1" opacity="0.7372549019607844" d="M 381.5 83 L 385 83.5 L 381.5 84 L 381.5 83 Z " /><path fill="rgb(0,0,0)" stroke="rgb(0,0,0)" stroke-width="1" opacity="0.7372549019607844" d="M 451.5 83 L 454 83.5 L 451.5 84 L 451.5 83 Z " /><path fill="rgb(0,0,0)" stroke="rgb(0,0,0)" stroke-width="1" opacity="0.7372549019607844" d="M 462.5 85 L 464.5 88 L 462.5 85 Z " /><path fill="rgb(0,0,0)" stroke="rgb(0,0,0)" stroke-width="1" opacity="0.7372549019607844" d="M 371.5 87 L 371 88.5 L 370.5 90 L 370 88.5 L 371.5 87 Z " /><path fill="rgb(0,0,0)" stroke="rgb(0,0,0)" stroke-width="1" opacity="0.7372549019607844" d="M 427.5 87 L 429.5 90 L 427.5 87 Z " /><path fill="rgb(0,0,0)" stroke="rgb(0,0,0)" stroke-width="1" opacity="0.7372549019607844" d="M 404.5 90 L 405.5 94 Q 401 92 404.5 90 Z " /><path fill="rgb(0,0,0)" stroke="rgb(0,0,0)" stroke-width="1" opacity="0.7372549019607844" d="M 432.5 91 L 431.5 93 L 432.5 91 Z " /><path fill="rgb(0,0,0)" stroke="rgb(0,0,0)" stroke-width="1" opacity="0.7372549019607844" d="M 428.5 94 L 420.5 103 L 428.5 94 Z " /><path fill="rgb(0,0,0)" stroke="rgb(0,0,0)" stroke-width="1" opacity="0.7372549019607844" d="M 408.5 95 L 414.5 102 L 408.5 95 Z " /><path fill="rgb(0,0,0)" stroke="rgb(0,0,0)" stroke-width="1" opacity="0.7372549019607844" d="M 462.5 97 L 461.5 99 L 460 98.5 L 462.5 97 Z " /><path fill="rgb(0,0,0)" stroke="rgb(0,0,0)" stroke-width="1" opacity="0.7372549019607844" d="M 379.5 99 L 384 99.5 L 379.5 100 L 379.5 99 Z " /><path fill="rgb(0,0,0)" stroke="rgb(0,0,0)" stroke-width="1" opacity="0.7372549019607844" d="M 452.5 99 L 457 99.5 L 452.5 100 L 452.5 99 Z " /><path fill="rgb(0,0,0)" stroke="rgb(0,0,0)" stroke-width="1" opacity="0.7372549019607844" d="M 445.5 101 L 447 101.5 L 444.5 103 L 445.5 101 Z " /><path fill="rgb(0,0,0)" stroke="rgb(0,0,0)" stroke-width="1" opacity="0.7372549019607844" d="M 415.5 103 L 416.5 105 L 415.5 103 Z " /><path fill="rgb(0,0,0)" stroke="rgb(0,0,0)" stroke-width="1" opacity="0.7372549019607844" d="M 395.5 104 L 396.5 106 L 395.5 104 Z " /><path fill="rgb(0,0,0)" stroke="rgb(0,0,0)" stroke-width="1" opacity="0.7372549019607844" d="M 419.5 104 L 418.5 106 L 419.5 104 Z " /><path fill="rgb(0,0,0)" stroke="rgb(0,0,0)" stroke-width="1" opacity="0.7372549019607844" d="M 437.5 106 L 432.5 112 L 437.5 106 Z " /><path fill="rgb(0,0,0)" stroke="rgb(0,0,0)" stroke-width="1" opacity="0.7372549019607844" d="M 399.5 107 L 401.5 110 L 399.5 107 Z " /><path fill="rgb(0,0,0)" stroke="rgb(0,0,0)" stroke-width="1" opacity="0.7372549019607844" d="M 405.5 115 L 406.5 117 L 405.5 115 Z " /><path fill="rgb(0,0,0)" stroke="rgb(0,0,0)" stroke-width="1" opacity="0.7372549019607844" d="M 425.5 128 L 426 132.5 L 425 132.5 L 425.5 128 Z " /><path fill="rgb(0,0,0)" stroke="rgb(0,0,0)" stroke-width="1" opacity="0.7372549019607844" d="M 410.5 131 L 411 133.5 L 410 133.5 L 410.5 131 Z " /><path fill="rgb(0,0,0)" stroke="rgb(0,0,0)" stroke-width="1" opacity="0.7372549019607844" d="M 424.5 135 L 423.5 137 L 424.5 135 Z " /><path fill="rgb(0,0,0)" stroke="rgb(0,0,0)" stroke-width="1" opacity="0.7372549019607844" d="M 416.5 139 L 419 139.5 L 416.5 140 L 416.5 139 Z " /><path fill="rgb(0,0,0)" stroke="rgb(0,0,0)" stroke-width="1" opacity="0.7372549019607844" d="M 186.5 150 L 185.5 152 L 186.5 150 Z " /><path fill="rgb(0,0,0)" stroke="rgb(0,0,0)" stroke-width="1" opacity="0.7372549019607844" d="M 325.5 150 L 326.5 152 L 325.5 150 Z " /><path fill="rgb(0,0,0)" stroke="rgb(0,0,0)" stroke-width="1" opacity="0.7372549019607844" d="M 198.5 164 L 199 278 L 313 278 L 313 219.5 L 314 219.5 L 314 277.5 L 312.5 279 L 199.5 279 L 198 277.5 L 198.5 164 Z " /><path fill="rgb(0,0,0)" stroke="rgb(0,0,0)" stroke-width="1" opacity="0.7372549019607844" d="M 313.5 164 L 314 192.5 L 313 192.5 L 313.5 164 Z " /><path fill="rgb(0,0,0)" stroke="rgb(0,0,0)" stroke-width="1" opacity="0.7372549019607844" d="M 327.5 193 L 326.5 195 L 327.5 193 Z " /><path fill="rgb(0,0,0)" stroke="rgb(0,0,0)" stroke-width="1" opacity="0.7372549019607844" d="M 314.5 194 L 316.5 197 L 314.5 194 Z " /><path fill="rgb(0,0,0)" stroke="rgb(0,0,0)" stroke-width="1" opacity="0.7372549019607844" d="M 318.5 197 L 323 197.5 L 318.5 198 L 318.5 197 Z " /><path fill="rgb(0,0,0)" stroke="rgb(0,0,0)" stroke-width="1" opacity="0.7372549019607844" d="M 82.5 214 L 79.5 218 L 82.5 214 Z " /><path fill="rgb(0,0,0)" stroke="rgb(0,0,0)" stroke-width="1" opacity="0.7372549019607844" d="M 89.5 214 L 92.5 218 L 89.5 214 Z " /><path fill="rgb(0,0,0)" stroke="rgb(0,0,0)" stroke-width="1" opacity="0.7372549019607844" d="M 325.5 215 L 326.5 217 L 325.5 215 Z " /><path fill="rgb(0,0,0)" stroke="rgb(0,0,0)" stroke-width="1" opacity="0.7372549019607844" d="M 78.5 220 L 79 223.5 L 78 223.5 L 78.5 220 Z " /><path fill="rgb(0,0,0)" stroke="rgb(0,0,0)" stroke-width="1" opacity="0.7372549019607844" d="M 93.5 220 L 94 223.5 L 93 223.5 L 93.5 220 Z " /><path fill="rgb(0,0,0)" stroke="rgb(0,0,0)" stroke-width="1" opacity="0.7372549019607844" d="M 76.5 230 L 77 231.5 L 75 232.5 L 76.5 230 Z " /><path fill="rgb(0,0,0)" stroke="rgb(0,0,0)" stroke-width="1" opacity="0.7372549019607844" d="M 72.5 237 L 70.5 240 L 72.5 237 Z " /><path fill="rgb(0,0,0)" stroke="rgb(0,0,0)" stroke-width="1" opacity="0.7372549019607844" d="M 99.5 237 L 101.5 240 L 99.5 237 Z " /><path fill="rgb(0,0,0)" stroke="rgb(0,0,0)" stroke-width="1" opacity="0.7372549019607844" d="M 104.5 241 L 105.5 243 L 104.5 241 Z " /><path fill="rgb(0,0,0)" stroke="rgb(0,0,0)" stroke-width="1" opacity="0.7372549019607844" d="M 56.5 245 L 60 245.5 L 56.5 246 L 56.5 245 Z " /><path fill="rgb(0,0,0)" stroke="rgb(0,0,0)" stroke-width="1" opacity="0.7372549019607844" d="M 113.5 245 L 116 245.5 L 113.5 246 L 113.5 245 Z " /><path fill="rgb(0,0,0)" stroke="rgb(0,0,0)" stroke-width="1" opacity="0.7372549019607844" d="M 120.5 246 L 123 247.5 L 121.5 247 L 120.5 246 Z " /><path fill="rgb(0,0,0)" stroke="rgb(0,0,0)" stroke-width="1" opacity="0.7372549019607844" d="M 83.5 247 L 79.5 252 L 83.5 247 Z " /><path fill="rgb(0,0,0)" stroke="rgb(0,0,0)" stroke-width="1" opacity="0.7372549019607844" d="M 88.5 247 L 92.5 252 L 88.5 247 Z " /><path fill="rgb(0,0,0)" stroke="rgb(0,0,0)" stroke-width="1" opacity="0.7372549019607844" d="M 79.5 255 L 83.5 260 L 79.5 255 Z " /><path fill="rgb(0,0,0)" stroke="rgb(0,0,0)" stroke-width="1" opacity="0.7372549019607844" d="M 92.5 255 L 88.5 260 L 92.5 255 Z " /><path fill="rgb(0,0,0)" stroke="rgb(0,0,0)" stroke-width="1" opacity="0.7372549019607844" d="M 122.5 259 L 121.5 261 L 120 260.5 L 122.5 259 Z " /><path fill="rgb(0,0,0)" stroke="rgb(0,0,0)" stroke-width="1" opacity="0.7372549019607844" d="M 56.5 261 L 60 261.5 L 56.5 262 L 56.5 261 Z " /><path fill="rgb(0,0,0)" stroke="rgb(0,0,0)" stroke-width="1" opacity="0.7372549019607844" d="M 113.5 261 L 116 261.5 L 113.5 262 L 113.5 261 Z " /><path fill="rgb(0,0,0)" stroke="rgb(0,0,0)" stroke-width="1" opacity="0.7372549019607844" d="M 66.5 264 L 67.5 266 L 66.5 264 Z " /><path fill="rgb(0,0,0)" stroke="rgb(0,0,0)" stroke-width="1" opacity="0.7372549019607844" d="M 105.5 264 L 104.5 266 L 105.5 264 Z " /><path fill="rgb(0,0,0)" stroke="rgb(0,0,0)" stroke-width="1" opacity="0.7372549019607844" d="M 70.5 267 L 72.5 270 L 70.5 267 Z " /><path fill="rgb(0,0,0)" stroke="rgb(0,0,0)" stroke-width="1" opacity="0.7372549019607844" d="M 101.5 267 L 99.5 270 L 101.5 267 Z " /><path fill="rgb(0,0,0)" stroke="rgb(0,0,0)" stroke-width="1" opacity="0.7372549019607844" d="M 165.5 278 L 184 278.5 L 165.5 279 L 165.5 278 Z " /><path fill="rgb(0,0,0)" stroke="rgb(0,0,0)" stroke-width="1" opacity="0.7372549019607844" d="M 328.5 278 L 347 278.5 L 328.5 279 L 328.5 278 Z " /><path fill="rgb(0,0,0)" stroke="rgb(0,0,0)" stroke-width="1" opacity="0.7372549019607844" d="M 78.5 283 L 79 286.5 L 78 286.5 L 78.5 283 Z " /><path fill="rgb(0,0,0)" stroke="rgb(0,0,0)" stroke-width="1" opacity="0.7372549019607844" d="M 93.5 283 L 94 286.5 L 93 286.5 L 93.5 283 Z " /><path fill="rgb(0,0,0)" stroke="rgb(0,0,0)" stroke-width="1" opacity="0.7372549019607844" d="M 159.5 285 L 160 384.5 L 159 384.5 L 159.5 285 Z " /><path fill="rgb(0,0,0)" stroke="rgb(0,0,0)" stroke-width="1" opacity="0.7372549019607844" d="M 352.5 285 L 353 474.5 L 352 474.5 L 352.5 285 Z " /><path fill="rgb(0,0,0)" stroke="rgb(0,0,0)" stroke-width="1" opacity="0.7372549019607844" d="M 79.5 289 L 82.5 293 L 79.5 289 Z " /><path fill="rgb(0,0,0)" stroke="rgb(0,0,0)" stroke-width="1" opacity="0.7372549019607844" d="M 92.5 289 L 89.5 293 L 92.5 289 Z " /><path fill="rgb(0,0,0)" stroke="rgb(0,0,0)" stroke-width="1" opacity="0.7372549019607844" d="M 174 293 L 337.5 293 L 338 293.5 L 338 326.5 L 337 326.5 L 337 294.5 L 336.5 294 L 175 294 L 174.5 327 L 174 293 Z " /><path fill="rgb(0,0,0)" stroke="rgb(0,0,0)" stroke-width="1" opacity="0.7372549019607844" d="M 174.5 342 L 175 383.5 L 174 383.5 L 174.5 342 Z " /><path fill="rgb(0,0,0)" stroke="rgb(0,0,0)" stroke-width="1" opacity="0.7372549019607844" d="M 337.5 342 L 338 474.5 L 337 474.5 L 337.5 342 Z " /><path fill="rgb(0,0,0)" stroke="rgb(0,0,0)" stroke-width="1" opacity="0.7372549019607844" d="M 421.5 384 L 424.5 388 L 421.5 384 Z " /><path fill="rgb(0,0,0)" stroke="rgb(0,0,0)" stroke-width="1" opacity="0.7372549019607844" d="M 161.5 388 L 162.5 390 L 161.5 388 Z " /><path fill="rgb(0,0,0)" stroke="rgb(0,0,0)" stroke-width="1" opacity="0.7372549019607844" d="M 172.5 388 L 171.5 390 L 172.5 388 Z " /><path fill="rgb(0,0,0)" stroke="rgb(0,0,0)" stroke-width="1" opacity="0.7372549019607844" d="M 410.5 389 L 411 392.5 L 410 392.5 L 410.5 389 Z " /><path fill="rgb(0,0,0)" stroke="rgb(0,0,0)" stroke-width="1" opacity="0.7372549019607844" d="M 425.5 391 L 426 394.5 L 425 394.5 L 425.5 391 Z " /><path fill="rgb(0,0,0)" stroke="rgb(0,0,0)" stroke-width="1" opacity="0.7372549019607844" d="M 406.5 404 L 405.5 406 L 406.5 404 Z " /><path fill="rgb(0,0,0)" stroke="rgb(0,0,0)" stroke-width="1" opacity="0.7372549019607844" d="M 165.5 407 L 169 407.5 L 165.5 408 L 165.5 407 Z " /><path fill="rgb(0,0,0)" stroke="rgb(0,0,0)" stroke-width="1" opacity="0.7372549019607844" d="M 431.5 407 L 434.5 411 L 431.5 407 Z " /><path fill="rgb(0,0,0)" stroke="rgb(0,0,0)" stroke-width="1" opacity="0.7372549019607844" d="M 403.5 408 L 402.5 410 L 403.5 408 Z " /><path fill="rgb(0,0,0)" stroke="rgb(0,0,0)" stroke-width="1" opacity="0.7372549019607844" d="M 399.5 411 L 398.5 413 L 399.5 411 Z " /><path fill="rgb(0,0,0)" stroke="rgb(0,0,0)" stroke-width="1" opacity="0.7372549019607844" d="M 159.5 414 L 160 474.5 L 159 474.5 L 159.5 414 Z " /><path fill="rgb(0,0,0)" stroke="rgb(0,0,0)" stroke-width="1" opacity="0.7372549019607844" d="M 174.5 414 L 175 474.5 L 174 474.5 L 174.5 414 Z " /><path fill="rgb(0,0,0)" stroke="rgb(0,0,0)" stroke-width="1" opacity="0.7372549019607844" d="M 388.5 415 L 391 415.5 L 388.5 416 L 388.5 415 Z " /><path fill="rgb(0,0,0)" stroke="rgb(0,0,0)" stroke-width="1" opacity="0.7372549019607844" d="M 444.5 415 L 448 415.5 L 444.5 416 L 444.5 415 Z " /><path fill="rgb(0,0,0)" stroke="rgb(0,0,0)" stroke-width="1" opacity="0.7372549019607844" d="M 382.5 416 L 384 416.5 L 381.5 418 L 382.5 416 Z " /><path fill="rgb(0,0,0)" stroke="rgb(0,0,0)" stroke-width="1" opacity="0.7372549019607844" d="M 419.5 416 L 424.5 422 L 419.5 416 Z " /><path fill="rgb(0,0,0)" stroke="rgb(0,0,0)" stroke-width="1" opacity="0.7372549019607844" d="M 454.5 417 L 456.5 420 L 454.5 417 Z " /><path fill="rgb(0,0,0)" stroke="rgb(0,0,0)" stroke-width="1" opacity="0.7372549019607844" d="M 414.5 418 L 412.5 421 L 414.5 418 Z " /><path fill="rgb(0,0,0)" stroke="rgb(0,0,0)" stroke-width="1" opacity="0.7372549019607844" d="M 379.5 419 L 379 420.5 L 378.5 422 L 378 420.5 L 379.5 419 Z " /><path fill="rgb(0,0,0)" stroke="rgb(0,0,0)" stroke-width="1" opacity="0.7372549019607844" d="M 457.5 421 L 458 425.5 L 457 425.5 L 457.5 421 Z " /><path fill="rgb(0,0,0)" stroke="rgb(0,0,0)" stroke-width="1" opacity="0.7372549019607844" d="M 426.5 423 L 419.5 431 L 426.5 423 Z " /><path fill="rgb(0,0,0)" stroke="rgb(0,0,0)" stroke-width="1" opacity="0.7372549019607844" d="M 378.5 425 L 380 427.5 L 378 426.5 L 378.5 425 Z " /><path fill="rgb(0,0,0)" stroke="rgb(0,0,0)" stroke-width="1" opacity="0.7372549019607844" d="M 412.5 426 L 415.5 430 L 412.5 426 Z " /><path fill="rgb(0,0,0)" stroke="rgb(0,0,0)" stroke-width="1" opacity="0.7372549019607844" d="M 456.5 427 L 454.5 430 L 456.5 427 Z " /><path fill="rgb(0,0,0)" stroke="rgb(0,0,0)" stroke-width="1" opacity="0.7372549019607844" d="M 381.5 429 L 385 430.5 L 382.5 431 L 381.5 429 Z " /><path fill="rgb(0,0,0)" stroke="rgb(0,0,0)" stroke-width="1" opacity="0.7372549019607844" d="M 444.5 431 L 447 431.5 L 444.5 432 L 444.5 431 Z " /><path fill="rgb(0,0,0)" stroke="rgb(0,0,0)" stroke-width="1" opacity="0.7372549019607844" d="M 398.5 434 L 399.5 436 L 398.5 434 Z " /><path fill="rgb(0,0,0)" stroke="rgb(0,0,0)" stroke-width="1" opacity="0.7372549019607844" d="M 434.5 436 L 430.5 441 L 434.5 436 Z " /><path fill="rgb(0,0,0)" stroke="rgb(0,0,0)" stroke-width="1" opacity="0.7372549019607844" d="M 402.5 437 L 403.5 439 L 402.5 437 Z " /><path fill="rgb(0,0,0)" stroke="rgb(0,0,0)" stroke-width="1" opacity="0.7372549019607844" d="M 429.5 442 L 428.5 444 L 429.5 442 Z " /><path fill="rgb(0,0,0)" stroke="rgb(0,0,0)" stroke-width="1" opacity="0.7372549019607844" d="M 425.5 452 L 426 455.5 L 425 455.5 L 425.5 452 Z " /><path fill="rgb(0,0,0)" stroke="rgb(0,0,0)" stroke-width="1" opacity="0.7372549019607844" d="M 410.5 454 L 411 457.5 L 410 457.5 L 410.5 454 Z " /><path fill="rgb(0,0,0)" stroke="rgb(0,0,0)" stroke-width="1" opacity="0.7372549019607844" d="M 424.5 459 L 421.5 463 L 424.5 459 Z " /><path fill="rgb(0,0,0)" stroke="rgb(0,0,0)" stroke-width="1" opacity="0.7372549019607844" d="M 413.5 461 L 414.5 463 L 413.5 461 Z " /><path fill="rgb(0,0,0)" stroke="rgb(0,0,0)" stroke-width="1" opacity="0.7372549019607844" d="M 180.5 488 L 182.5 491 L 180.5 488 Z " /><path fill="rgb(0,0,0)" stroke="rgb(0,0,0)" stroke-width="1" opacity="0.7372549019607844" d="M 331.5 488 L 329.5 491 L 331.5 488 Z " /><path fill="rgb(0,0,0)" stroke="rgb(0,0,0)" stroke-width="1" opacity="0.7372549019607844" d="M 163.5 489 L 164.5 491 L 163.5 489 Z " /><path fill="rgb(0,0,0)" stroke="rgb(0,0,0)" stroke-width="1" opacity="0.7372549019607844" d="M 348.5 489 L 347.5 491 L 348.5 489 Z " /><path fill="rgb(0,0,0)" stroke="rgb(0,0,0)" stroke-width="1" opacity="0.7372549019607844" d="M 185.5 492 L 186.5 494 L 185.5 492 Z " /><path fill="rgb(0,0,0)" stroke="rgb(0,0,0)" stroke-width="1" opacity="0.7372549019607844" d="M 326.5 492 L 325.5 494 L 326.5 492 Z " /><path fill="rgb(0,0,0)" stroke="rgb(0,0,0)" stroke-width="1" opacity="0.7372549019607844" d="M 166.5 494 L 167.5 496 L 166.5 494 Z " /><path fill="rgb(0,0,0)" stroke="rgb(0,0,0)" stroke-width="1" opacity="0.7372549019607844" d="M 345.5 494 L 344.5 496 L 345.5 494 Z " /><path fill="rgb(0,0,0)" stroke="rgb(0,0,0)" stroke-width="1" opacity="0.7372549019607844" d="M 194.5 496 L 198 496.5 L 194.5 497 L 194.5 496 Z " /><path fill="rgb(0,0,0)" stroke="rgb(0,0,0)" stroke-width="1" opacity="0.7372549019607844" d="M 314.5 496 L 318 496.5 L 314.5 497 L 314.5 496 Z " /><path fill="rgb(0,0,0)" stroke="rgb(0,0,0)" stroke-width="1" opacity="0.7372549019607844" d="M 169.5 498 L 172.5 502 L 169.5 498 Z " /><path fill="rgb(0,0,0)" stroke="rgb(0,0,0)" stroke-width="1" opacity="0.7372549019607844" d="M 342.5 498 L 339.5 502 L 342.5 498 Z " /><path fill="rgb(0,0,0)" stroke="rgb(0,0,0)" stroke-width="1" opacity="0.7372549019607844" d="M 175.5 503 L 177.5 506 L 175.5 503 Z " /><path fill="rgb(0,0,0)" stroke="rgb(0,0,0)" stroke-width="1" opacity="0.7372549019607844" d="M 336.5 503 L 334.5 506 L 336.5 503 Z " /><path fill="rgb(0,0,0)" stroke="rgb(0,0,0)" stroke-width="1" opacity="0.7372549019607844" d="M 193.5 511 L 198 511.5 L 193.5 512 L 193.5 511 Z " /><path fill="rgb(0,0,0)" stroke="rgb(0,0,0)" stroke-width="1" opacity="0.7372549019607844" d="M 314.5 511 L 319 511.5 L 314.5 512 L 314.5 511 Z " /><path fill="rgb(0,0,0)" stroke="rgb(0,0,0)" stroke-width="1" opacity="0.996078431372549" d="M 206.5 3 L 205.5 5 L 206.5 3 Z " /><path fill="rgb(0,0,0)" stroke="rgb(0,0,0)" stroke-width="1" opacity="0.996078431372549" d="M 303.5 43 L 305.5 46 L 303.5 43 Z " /><path fill="rgb(0,0,0)" stroke="rgb(0,0,0)" stroke-width="1" opacity="0.996078431372549" d="M 294.5 54 L 295.5 56 L 294.5 54 Z " /><path fill="rgb(0,0,0)" stroke="rgb(0,0,0)" stroke-width="1" opacity="0.996078431372549" d="M 404.5 70 L 403.5 72 L 404.5 70 Z " /><path fill="rgb(0,0,0)" stroke="rgb(0,0,0)" stroke-width="1" opacity="0.996078431372549" d="M 434.5 74 L 435.5 76 L 434.5 74 Z " /><path fill="rgb(0,0,0)" stroke="rgb(0,0,0)" stroke-width="1" opacity="0.996078431372549" d="M 397.5 77 L 396.5 79 L 397.5 77 Z " /><path fill="rgb(0,0,0)" stroke="rgb(0,0,0)" stroke-width="1" opacity="0.996078431372549" d="M 422.5 82 L 426.5 87 L 422.5 82 Z " /><path fill="rgb(0,0,0)" stroke="rgb(0,0,0)" stroke-width="1" opacity="0.996078431372549" d="M 430.5 89 L 431.5 91 L 430.5 89 Z " /><path fill="rgb(0,0,0)" stroke="rgb(0,0,0)" stroke-width="1" opacity="0.996078431372549" d="M 430.5 93 L 429.5 95 L 430.5 93 Z " /><path fill="rgb(0,0,0)" stroke="rgb(0,0,0)" stroke-width="1" opacity="0.996078431372549" d="M 406.5 94 L 407.5 96 L 406.5 94 Z " /><path fill="rgb(0,0,0)" stroke="rgb(0,0,0)" stroke-width="1" opacity="0.996078431372549" d="M 439.5 104 L 438.5 106 L 439.5 104 Z " /><path fill="rgb(0,0,0)" stroke="rgb(0,0,0)" stroke-width="1" opacity="0.996078431372549" d="M 397.5 105 L 398.5 107 L 397.5 105 Z " /><path fill="rgb(0,0,0)" stroke="rgb(0,0,0)" stroke-width="1" opacity="0.996078431372549" d="M 402.5 110 L 403.5 112 L 402.5 110 Z " /><path fill="rgb(0,0,0)" stroke="rgb(0,0,0)" stroke-width="1" opacity="0.996078431372549" d="M 412.5 136 L 413.5 138 L 412.5 136 Z " /><path fill="rgb(0,0,0)" stroke="rgb(0,0,0)" stroke-width="1" opacity="0.996078431372549" d="M 198.5 163 L 314 163.5 L 198.5 164 L 198.5 163 Z " /><path fill="rgb(0,0,0)" stroke="rgb(0,0,0)" stroke-width="1" opacity="0.996078431372549" d="M 316.5 215 L 315.5 217 L 316.5 215 Z " /><path fill="rgb(0,0,0)" stroke="rgb(0,0,0)" stroke-width="1" opacity="0.996078431372549" d="M 74.5 235 L 73.5 237 L 74.5 235 Z " /><path fill="rgb(0,0,0)" stroke="rgb(0,0,0)" stroke-width="1" opacity="0.996078431372549" d="M 97.5 235 L 98.5 237 L 97.5 235 Z " /><path fill="rgb(0,0,0)" stroke="rgb(0,0,0)" stroke-width="1" opacity="0.996078431372549" d="M 69.5 240 L 68.5 242 L 69.5 240 Z " /><path fill="rgb(0,0,0)" stroke="rgb(0,0,0)" stroke-width="1" opacity="0.996078431372549" d="M 102.5 240 L 103.5 242 L 102.5 240 Z " /><path fill="rgb(0,0,0)" stroke="rgb(0,0,0)" stroke-width="1" opacity="0.996078431372549" d="M 85.5 244 L 89 246.5 L 86.5 245 L 84.5 246 L 85.5 244 Z " /><path fill="rgb(0,0,0)" stroke="rgb(0,0,0)" stroke-width="1" opacity="0.996078431372549" d="M 78.5 251 L 77.5 253 L 78.5 251 Z " /><path fill="rgb(0,0,0)" stroke="rgb(0,0,0)" stroke-width="1" opacity="0.996078431372549" d="M 93.5 251 L 94.5 253 L 93.5 251 Z " /><path fill="rgb(0,0,0)" stroke="rgb(0,0,0)" stroke-width="1" opacity="0.996078431372549" d="M 77.5 254 L 78.5 256 L 77.5 254 Z " /><path fill="rgb(0,0,0)" stroke="rgb(0,0,0)" stroke-width="1" opacity="0.996078431372549" d="M 94.5 254 L 93.5 256 L 94.5 254 Z " /><path fill="rgb(0,0,0)" stroke="rgb(0,0,0)" stroke-width="1" opacity="0.996078431372549" d="M 88.5 260 L 86.5 263 L 84 261.5 L 85.5 262 L 88.5 260 Z " /><path fill="rgb(0,0,0)" stroke="rgb(0,0,0)" stroke-width="1" opacity="0.996078431372549" d="M 68.5 265 L 69.5 267 L 68.5 265 Z " /><path fill="rgb(0,0,0)" stroke="rgb(0,0,0)" stroke-width="1" opacity="0.996078431372549" d="M 103.5 265 L 102.5 267 L 103.5 265 Z " /><path fill="rgb(0,0,0)" stroke="rgb(0,0,0)" stroke-width="1" opacity="0.996078431372549" d="M 73.5 270 L 74.5 272 L 73.5 270 Z " /><path fill="rgb(0,0,0)" stroke="rgb(0,0,0)" stroke-width="1" opacity="0.996078431372549" d="M 98.5 270 L 97.5 272 L 98.5 270 Z " /><path fill="rgb(0,0,0)" stroke="rgb(0,0,0)" stroke-width="1" opacity="0.996078431372549" d="M 162.5 280 L 161.5 282 L 162.5 280 Z " /><path fill="rgb(0,0,0)" stroke="rgb(0,0,0)" stroke-width="1" opacity="0.996078431372549" d="M 349.5 280 L 350.5 282 L 349.5 280 Z " /><path fill="rgb(0,0,0)" stroke="rgb(0,0,0)" stroke-width="1" opacity="0.996078431372549" d="M 413.5 385 L 412.5 387 L 413.5 385 Z " /><path fill="rgb(0,0,0)" stroke="rgb(0,0,0)" stroke-width="1" opacity="0.996078431372549" d="M 429.5 405 L 430.5 407 L 429.5 405 Z " /><path fill="rgb(0,0,0)" stroke="rgb(0,0,0)" stroke-width="1" opacity="0.996078431372549" d="M 405.5 406 L 404.5 408 L 405.5 406 Z " /><path fill="rgb(0,0,0)" stroke="rgb(0,0,0)" stroke-width="1" opacity="0.996078431372549" d="M 162.5 409 L 161.5 411 L 162.5 409 Z " /><path fill="rgb(0,0,0)" stroke="rgb(0,0,0)" stroke-width="1" opacity="0.996078431372549" d="M 171.5 409 L 172.5 411 L 171.5 409 Z " /><path fill="rgb(0,0,0)" stroke="rgb(0,0,0)" stroke-width="1" opacity="0.996078431372549" d="M 401.5 410 L 400.5 412 L 401.5 410 Z " /><path fill="rgb(0,0,0)" stroke="rgb(0,0,0)" stroke-width="1" opacity="0.996078431372549" d="M 418.5 414 L 419.5 416 L 418.5 414 Z " /><path fill="rgb(0,0,0)" stroke="rgb(0,0,0)" stroke-width="1" opacity="0.996078431372549" d="M 416.5 415 L 414.5 418 L 416.5 415 Z " /><path fill="rgb(0,0,0)" stroke="rgb(0,0,0)" stroke-width="1" opacity="0.996078431372549" d="M 411.5 420 L 409 423.5 L 411.5 427 Q 404.5 423.5 411.5 420 Z " /><path fill="rgb(0,0,0)" stroke="rgb(0,0,0)" stroke-width="1" opacity="0.996078431372549" d="M 425.5 421 L 426.5 423 L 425.5 421 Z " /><path fill="rgb(0,0,0)" stroke="rgb(0,0,0)" stroke-width="1" opacity="0.996078431372549" d="M 415.5 430 L 418.5 432 L 420 431.5 L 417.5 433 L 415.5 430 Z " /><path fill="rgb(0,0,0)" stroke="rgb(0,0,0)" stroke-width="1" opacity="0.996078431372549" d="M 400.5 435 L 401.5 437 L 400.5 435 Z " /><path fill="rgb(0,0,0)" stroke="rgb(0,0,0)" stroke-width="1" opacity="0.996078431372549" d="M 404.5 439 L 405.5 441 L 404.5 439 Z " /><path fill="rgb(0,0,0)" stroke="rgb(0,0,0)" stroke-width="1" opacity="0.996078431372549" d="M 178.5 486 L 179.5 488 L 178.5 486 Z " /><path fill="rgb(0,0,0)" stroke="rgb(0,0,0)" stroke-width="1" opacity="0.996078431372549" d="M 333.5 486 L 332.5 488 L 333.5 486 Z " /><path fill="rgb(0,0,0)" stroke="rgb(0,0,0)" stroke-width="1" opacity="0.996078431372549" d="M 183.5 491 L 184.5 493 L 183.5 491 Z " /><path fill="rgb(0,0,0)" stroke="rgb(0,0,0)" stroke-width="1" opacity="0.996078431372549" d="M 328.5 491 L 327.5 493 L 328.5 491 Z " /><path fill="rgb(0,0,0)" stroke="rgb(0,0,0)" stroke-width="1" opacity="0.996078431372549" d="M 168.5 496 L 169.5 498 L 168.5 496 Z " /><path fill="rgb(0,0,0)" stroke="rgb(0,0,0)" stroke-width="1" opacity="0.996078431372549" d="M 343.5 496 L 342.5 498 L 343.5 496 Z " /><path fill="rgb(0,0,0)" stroke="rgb(0,0,0)" stroke-width="1" opacity="0.996078431372549" d="M 173.5 501 L 174.5 503 L 173.5 501 Z " /><path fill="rgb(0,0,0)" stroke="rgb(0,0,0)" stroke-width="1" opacity="0.996078431372549" d="M 338.5 501 L 337.5 503 L 338.5 501 Z " /><path fill="rgb(0,0,0)" stroke="rgb(0,0,0)" stroke-width="1" opacity="0" d="M 0 0 L 211 0.5 L 204 4 L 200 11.5 L 200 149 L 188.5 149 L 185 151.5 L 184 153.5 L 184 278 L 165.5 278 L 160 282.5 L 159 285.5 L 159 384.5 L 162.5 390 L 169.5 391 L 173 388.5 L 175 383.5 L 175 342 L 337 342 L 337 477.5 Q 334.6 487.1 327.5 492 L 322.5 495 L 313.5 497 L 198.5 497 L 187.5 494 L 179 486.5 L 175 477.5 L 175 414.5 L 170.5 408 L 165.5 407 L 160 411.5 L 159 414.5 L 159 474.5 L 162 487.5 L 172.5 502 Q 179.5 510 193 511.5 L 0 512 L 0 0 Z M 87 213 L 83 214 L 79 218 L 78 227 L 74 236 L 64 244 L 50 247 L 46 252 L 47 258 L 52 261 Q 63 261 69 266 Q 74 270 77 278 L 79 290 L 83 293 L 87 294 L 90 293 L 93 290 L 94 281 L 98 272 Q 104 261 122 261 L 126 256 L 125 250 L 122 246 Q 110 246 104 241 Q 98 237 95 230 L 93 218 L 87 213 Z " /><path fill="rgb(0,0,0)" stroke="rgb(0,0,0)" stroke-width="1" opacity="0" d="M 220.5 0 L 512 0 L 512 512 L 319 511.5 Q 334.8 508.8 343 498.5 L 350 487.5 L 353 474.5 L 353 285.5 L 348.5 279 L 346.5 278 L 328 278 L 328 218.5 L 325.5 215 L 320.5 213 L 314 217.5 L 313 219.5 L 313 278 L 199 278 L 199 164 L 312.5 164 L 313 164.5 L 313 192.5 L 316.5 197 L 322.5 198 L 328 193.5 L 328 153.5 L 325.5 150 L 323.5 149 L 312 149 L 312 55.5 Q 309.3 45.7 301.5 41 L 220.5 1 L 220.5 0 Z M 415 44 L 410 50 L 410 58 L 405 70 Q 399 78 390 82 L 374 85 Q 369 87 370 95 L 375 99 L 386 100 L 398 106 Q 404 111 408 120 L 410 127 L 410 134 L 412 138 L 417 140 L 422 139 L 425 136 L 426 126 L 431 114 Q 439 99 462 99 L 466 94 L 465 88 L 461 84 L 455 84 L 447 82 L 436 75 L 427 62 L 425 48 Q 423 42 415 44 Z M 418 383 L 415 384 L 410 390 L 410 397 L 405 407 Q 399 416 383 416 Q 377 417 378 427 L 383 431 Q 394 431 401 436 Q 406 440 409 448 L 411 460 Q 413 465 422 463 L 425 460 L 427 447 L 430 442 L 441 433 L 455 430 L 458 426 L 457 420 L 453 416 Q 443 416 437 412 L 427 401 L 425 388 Q 423 383 418 383 Z " /><path fill="rgb(0,0,0)" stroke="rgb(0,0,0)" stroke-width="1" opacity="0" d="M 215.5 15 L 295 55.5 L 297 59.5 L 297 149 L 215 149 L 215.5 15 Z " /><path fill="rgb(0,0,0)" stroke="rgb(0,0,0)" stroke-width="1" opacity="0" d="M 417.5 78 Q 419.8 77.3 419 79.5 L 432 91.5 L 420 102.5 L 417.5 106 L 408.5 95 L 404 91.5 L 416 80.5 L 417.5 78 Z " /><path fill="rgb(0,0,0)" stroke="rgb(0,0,0)" stroke-width="1" opacity="0" d="M 85.5 245 L 88 246.5 L 92.5 252 L 95 253.5 L 88 259.5 L 86.5 262 L 84 260.5 L 79.5 255 L 77 253.5 L 84 247.5 L 85.5 245 Z " /><path fill="rgb(0,0,0)" stroke="rgb(0,0,0)" stroke-width="1" opacity="0" d="M 175 294 L 336.5 294 L 337 294.5 L 337 327 L 175.5 327 L 175 326.5 L 175 294 Z " /><path fill="rgb(0,0,0)" stroke="rgb(0,0,0)" stroke-width="1" opacity="0" d="M 417.5 415 Q 419.8 414.3 419 416.5 L 426 422 L 419 432 L 416 430.5 L 412.5 426 L 409 423.5 L 415 418.5 L 417.5 415 Z " /><path fill="rgb(0,0,0)" stroke="rgb(0,0,0)" stroke-width="1" opacity="1" d="M 211.5 1 L 222.5 2 L 298.5 40 L 308 48.5 L 311 54.5 Q 309.7 59.3 312 60.5 L 312 149 Q 321.6 147.6 326 151 L 328 155.5 L 328 191.5 L 323.5 197 Q 317 198 315 194.5 L 314 192.5 L 314 163 L 198 163 L 198 279 L 314 279 L 314 218.5 Q 316.1 214.1 322.5 214 L 327 217.5 L 328 220.5 L 328 279 L 347.5 279 L 352 283.5 L 352 477.5 Q 349.2 492.7 339.5 501 L 326.5 509 L 311.5 512 L 200.5 512 L 185.5 509 Q 176 505.5 170 498.5 L 162 485.5 L 160 477.5 L 160 412.5 L 164.5 408 L 169.5 408 L 174 412.5 L 174 476.5 Q 176.4 487.6 184.5 493 L 193.5 497 L 318.5 497 Q 328.8 494.3 334 486.5 L 338 476.5 L 338 342 L 174.5 342 L 174 342.5 L 174 385.5 L 171.5 389 L 164.5 390 L 161 387.5 L 160 385.5 L 160 283.5 L 164.5 279 L 184 279 L 184 155.5 L 186 151 Q 190.4 147.6 200 149 L 200 15.5 L 204 5 L 211.5 1 Z M 215 15 L 215 149 L 297 149 L 297 58 L 296 56 L 292 52 L 218 15 L 215 15 Z M 174 293 L 174 327 L 175 327 L 338 327 L 338 294 L 338 293 L 174 293 Z " /><path fill="rgb(0,0,0)" stroke="rgb(0,0,0)" stroke-width="1" opacity="1" d="M 416.5 44 Q 422.7 43.3 424 47.5 L 427 63.5 L 435.5 76 L 444.5 82 Q 449.1 84.9 457.5 84 L 464 87.5 L 465 94.5 L 461.5 98 L 451.5 99 L 439.5 104 L 431 112.5 Q 424.6 119.6 425 133.5 L 420.5 139 L 415.5 139 L 411 134.5 L 409 120.5 Q 405.2 110.8 397.5 105 L 384.5 99 Q 375.9 99.9 372 97 L 370 91.5 L 374.5 85 L 388.5 83 Q 399.2 79.2 405 70.5 Q 411.2 62.7 411 48.5 L 414.5 45 L 416.5 44 Z M 418 77 L 415 81 L 406 89 L 403 93 L 409 96 L 418 107 L 421 103 L 433 92 L 430 89 L 420 79 L 418 77 Z " /><path fill="rgb(0,0,0)" stroke="rgb(0,0,0)" stroke-width="1" opacity="1" d="M 84.5 214 Q 90.7 213.3 92 217.5 L 95 231.5 L 103.5 242 L 112.5 246 L 121.5 247 L 125 250.5 Q 126.5 258.5 121.5 260 L 109.5 262 Q 101.4 264.9 97 271.5 Q 93 277.5 93 287.5 L 89.5 292 L 84.5 293 L 80 289.5 L 77 275.5 L 68.5 265 L 63.5 262 L 50.5 260 L 47 256.5 Q 45.5 248.5 50.5 247 L 63.5 245 L 75 235.5 Q 79.4 229.9 79 219.5 L 82.5 215 L 84.5 214 Z M 86 244 L 84 247 L 79 251 L 77 255 L 80 256 L 84 262 L 87 263 L 89 260 L 94 256 L 95 253 L 93 251 L 89 247 L 86 244 Z " /><path fill="rgb(0,0,0)" stroke="rgb(0,0,0)" stroke-width="1" opacity="1" d="M 416.5 384 Q 422.7 383.3 424 387.5 L 426 399.5 Q 428.9 407.6 435.5 412 L 440.5 415 L 453.5 417 L 456 419.5 L 457 425.5 L 453.5 430 L 440.5 432 L 429 441.5 L 425 450.5 L 425 457.5 L 421.5 462 L 416.5 463 L 411 458.5 Q 411.1 441.4 400.5 435 L 391.5 431 L 382.5 430 L 379 426.5 L 378 423.5 L 382.5 417 L 394.5 415 Q 401.9 412.4 406 406.5 Q 411.3 400.3 411 388.5 L 414.5 385 L 416.5 384 Z M 418 414 L 414 419 L 408 424 L 413 427 L 415 431 L 419 433 L 426 425 Q 428 426 427 423 L 425 421 L 420 416 L 418 414 Z " /></svg>